<svg width="472" height="224" viewBox="0 0 472 224" fill="none" xmlns="http://www.w3.org/2000/svg">
<path d="M223.248 17C222.528 17 222.168 16.538 222.168 15.614V6.902H222.042L218.334 16.334C218.154 16.778 217.902 17 217.578 17C217.242 17 216.984 16.778 216.804 16.334L213.348 6.902H213.222V15.992C213.222 16.34 213.144 16.598 212.988 16.766C212.844 16.922 212.676 17 212.484 17C212.292 17 212.13 16.934 211.998 16.802C211.866 16.67 211.8 16.466 211.8 16.19V5.192C211.8 4.892 211.914 4.658 212.142 4.49C212.37 4.322 212.64 4.238 212.952 4.238C213.216 4.238 213.474 4.31 213.726 4.454C213.99 4.586 214.182 4.802 214.302 5.102L217.758 14.66H217.848L221.61 5.192C221.73 4.856 221.922 4.616 222.186 4.472C222.462 4.316 222.756 4.238 223.068 4.238C223.38 4.238 223.608 4.316 223.752 4.472C223.908 4.628 223.986 4.868 223.986 5.192V16.1C223.986 16.436 223.932 16.67 223.824 16.802C223.716 16.934 223.524 17 223.248 17ZM228.125 16.046C227.981 16.43 227.813 16.688 227.621 16.82C227.441 16.94 227.243 17 227.027 17C226.859 17 226.733 16.958 226.649 16.874C226.577 16.778 226.541 16.658 226.541 16.514C226.541 16.37 226.571 16.22 226.631 16.064L230.861 4.67C230.909 4.538 231.023 4.436 231.203 4.364C231.395 4.28 231.611 4.238 231.851 4.238C232.115 4.238 232.349 4.28 232.553 4.364C232.769 4.448 232.901 4.568 232.949 4.724L237.071 16.136C237.095 16.256 237.107 16.346 237.107 16.406C237.107 16.574 237.047 16.718 236.927 16.838C236.819 16.946 236.645 17 236.405 17C236.153 17 235.895 16.934 235.631 16.802C235.379 16.67 235.187 16.418 235.055 16.046L234.101 13.58H229.043L228.125 16.046ZM231.653 6.362H231.545L229.331 12.644H233.831L231.653 6.362ZM241.676 15.83C241.676 16.25 241.586 16.55 241.406 16.73C241.226 16.91 240.944 17 240.56 17C240.284 17 240.074 16.928 239.93 16.784C239.798 16.64 239.732 16.412 239.732 16.1V5.138C239.732 4.814 239.792 4.586 239.912 4.454C240.032 4.31 240.236 4.238 240.524 4.238H243.53C244.274 4.238 244.988 4.31 245.672 4.454C246.368 4.598 246.998 4.946 247.562 5.498C248.126 6.038 248.408 6.86 248.408 7.964C248.408 8.732 248.228 9.428 247.868 10.052C247.508 10.664 246.962 11.15 246.23 11.51C245.51 11.87 244.616 12.05 243.548 12.05H241.676V15.83ZM241.676 11.096H243.53C244.43 11.096 245.126 10.844 245.618 10.34C246.122 9.824 246.374 9.032 246.374 7.964C246.374 7.076 246.152 6.392 245.708 5.912C245.276 5.432 244.55 5.192 243.53 5.192H241.676V11.096ZM256.215 15.92C256.215 16.328 256.125 16.61 255.945 16.766C255.777 16.922 255.495 17 255.099 17C254.823 17 254.613 16.928 254.469 16.784C254.337 16.64 254.271 16.412 254.271 16.1V5.192H251.571V6.47C251.571 6.89 251.481 7.19 251.301 7.37C251.133 7.55 250.875 7.64 250.527 7.64C250.263 7.64 250.065 7.568 249.933 7.424C249.813 7.28 249.753 7.052 249.753 6.74V4.904C249.753 4.652 249.837 4.478 250.005 4.382C250.185 4.286 250.461 4.238 250.833 4.238H259.653C260.025 4.238 260.295 4.286 260.463 4.382C260.643 4.478 260.733 4.652 260.733 4.904V6.74C260.733 7.052 260.667 7.28 260.535 7.424C260.415 7.568 260.223 7.64 259.959 7.64C259.611 7.64 259.347 7.55 259.167 7.37C258.999 7.19 258.915 6.89 258.915 6.47V5.192H256.215V15.92Z" fill="#881337"/>
<path d="M214.595 97.09C214.331 97.09 214.133 97.018 214.001 96.874C213.881 96.73 213.821 96.502 213.821 96.19V95.11C213.821 94.906 213.845 94.756 213.893 94.66C213.953 94.564 214.067 94.462 214.235 94.354C214.847 93.946 215.435 93.658 215.999 93.49C216.575 93.322 217.199 93.238 217.871 93.238C219.059 93.238 219.935 93.544 220.499 94.156C221.075 94.756 221.363 95.518 221.363 96.442C221.363 97.606 220.895 98.866 219.959 100.222C219.035 101.566 217.415 103.174 215.099 105.046H219.797V103.93C219.797 103.51 219.875 103.21 220.031 103.03C220.199 102.85 220.439 102.76 220.751 102.76C221.015 102.76 221.207 102.832 221.327 102.976C221.459 103.12 221.525 103.348 221.525 103.66V105.424C221.525 105.628 221.435 105.778 221.255 105.874C221.075 105.958 220.805 106 220.445 106H214.055C213.911 106 213.797 105.952 213.713 105.856C213.641 105.76 213.605 105.64 213.605 105.496C213.605 105.244 213.695 105.04 213.875 104.884L214.127 104.65C216.203 102.718 217.589 101.11 218.285 99.826C218.981 98.53 219.329 97.492 219.329 96.712C219.329 96.028 219.179 95.434 218.879 94.93C218.591 94.414 218.063 94.156 217.295 94.156C216.719 94.156 216.137 94.312 215.549 94.624V95.92C215.549 96.352 215.477 96.658 215.333 96.838C215.189 97.006 214.943 97.09 214.595 97.09ZM227.089 99.628C227.089 97.72 227.419 96.178 228.079 95.002C228.739 93.826 229.795 93.238 231.247 93.238C232.699 93.238 233.755 93.826 234.415 95.002C235.075 96.178 235.405 97.72 235.405 99.628C235.405 101.596 235.075 103.15 234.415 104.29C233.767 105.43 232.711 106 231.247 106C229.783 106 228.721 105.43 228.061 104.29C227.413 103.15 227.089 101.596 227.089 99.628ZM233.425 99.628C233.425 98.032 233.281 96.724 232.993 95.704C232.705 94.672 232.123 94.156 231.247 94.156C230.371 94.156 229.789 94.672 229.501 95.704C229.213 96.724 229.069 98.032 229.069 99.628C229.069 100.72 229.117 101.656 229.213 102.436C229.309 103.204 229.513 103.84 229.825 104.344C230.149 104.836 230.623 105.082 231.247 105.082C231.871 105.082 232.339 104.836 232.651 104.344C232.975 103.84 233.185 103.204 233.281 102.436C233.377 101.656 233.425 100.72 233.425 99.628ZM241.598 97.09C241.334 97.09 241.136 97.018 241.004 96.874C240.884 96.73 240.824 96.502 240.824 96.19V95.11C240.824 94.906 240.848 94.756 240.896 94.66C240.956 94.564 241.07 94.462 241.238 94.354C241.85 93.946 242.438 93.658 243.002 93.49C243.578 93.322 244.202 93.238 244.874 93.238C246.062 93.238 246.938 93.544 247.502 94.156C248.078 94.756 248.366 95.518 248.366 96.442C248.366 97.606 247.898 98.866 246.962 100.222C246.038 101.566 244.418 103.174 242.102 105.046H246.8V103.93C246.8 103.51 246.878 103.21 247.034 103.03C247.202 102.85 247.442 102.76 247.754 102.76C248.018 102.76 248.21 102.832 248.33 102.976C248.462 103.12 248.528 103.348 248.528 103.66V105.424C248.528 105.628 248.438 105.778 248.258 105.874C248.078 105.958 247.808 106 247.448 106H241.058C240.914 106 240.8 105.952 240.716 105.856C240.644 105.76 240.608 105.64 240.608 105.496C240.608 105.244 240.698 105.04 240.878 104.884L241.13 104.65C243.206 102.718 244.592 101.11 245.288 99.826C245.984 98.53 246.332 97.492 246.332 96.712C246.332 96.028 246.182 95.434 245.882 94.93C245.594 94.414 245.066 94.156 244.298 94.156C243.722 94.156 243.14 94.312 242.552 94.624V95.92C242.552 96.352 242.48 96.658 242.336 96.838C242.192 97.006 241.946 97.09 241.598 97.09ZM254.794 102.166C255.142 102.166 255.388 102.256 255.532 102.436C255.676 102.604 255.748 102.904 255.748 103.336V104.632C256.264 104.932 256.876 105.082 257.584 105.082C258.292 105.082 258.874 104.86 259.33 104.416C259.798 103.96 260.032 103.282 260.032 102.382C260.032 101.434 259.804 100.774 259.348 100.402C258.892 100.03 258.238 99.844 257.386 99.844H256.864C256.78 99.844 256.708 99.796 256.648 99.7C256.6 99.604 256.576 99.49 256.576 99.358C256.576 99.226 256.6 99.112 256.648 99.016C256.708 98.908 256.78 98.854 256.864 98.854H257.386C258.154 98.854 258.724 98.65 259.096 98.242C259.468 97.822 259.654 97.186 259.654 96.334C259.654 95.59 259.468 95.044 259.096 94.696C258.724 94.336 258.226 94.156 257.602 94.156C257.326 94.156 257.038 94.198 256.738 94.282C256.438 94.354 256.168 94.456 255.928 94.588V95.884C255.928 96.316 255.856 96.622 255.712 96.802C255.568 96.97 255.322 97.054 254.974 97.054C254.71 97.054 254.512 96.982 254.38 96.838C254.26 96.694 254.2 96.466 254.2 96.154V95.074C254.2 94.858 254.23 94.696 254.29 94.588C254.35 94.468 254.458 94.36 254.614 94.264C255.178 93.904 255.73 93.646 256.27 93.49C256.822 93.322 257.416 93.238 258.052 93.238C259.264 93.238 260.164 93.52 260.752 94.084C261.34 94.648 261.634 95.398 261.634 96.334C261.634 97.078 261.412 97.702 260.968 98.206C260.536 98.71 260.002 99.028 259.366 99.16V99.322C260.17 99.43 260.818 99.73 261.31 100.222C261.802 100.714 262.048 101.428 262.048 102.364C262.048 103.096 261.868 103.738 261.508 104.29C261.16 104.83 260.662 105.25 260.014 105.55C259.378 105.85 258.64 106 257.8 106C256.612 106 255.49 105.688 254.434 105.064C254.158 104.896 254.02 104.59 254.02 104.146V103.066C254.02 102.754 254.08 102.526 254.2 102.382C254.332 102.238 254.53 102.166 254.794 102.166Z" fill="#881337"/>
<path d="M223.75 48.06C223.51 48.16 223.27 48.21 223.03 48.21C222.79 48.21 222.6 48.12 222.46 47.94C222.32 47.76 222.25 47.56 222.25 47.34C222.25 47.04 222.46 46.82 222.88 46.68L227.11 45.03C227.65 44.83 228.19 44.73 228.73 44.73C229.27 44.73 229.66 44.85 229.9 45.09C230.14 45.33 230.26 45.71 230.26 46.23V64.41H232.84C233.3 64.41 233.61 64.49 233.77 64.65C233.95 64.81 234.04 65.02 234.04 65.28C234.04 65.5 233.98 65.68 233.86 65.82C233.74 65.94 233.5 66 233.14 66H224.2C223.84 66 223.6 65.94 223.48 65.82C223.36 65.68 223.3 65.5 223.3 65.28C223.3 65.02 223.38 64.81 223.54 64.65C223.72 64.49 224.04 64.41 224.5 64.41H227.08V46.8L223.75 48.06ZM235.321 45.84C235.321 45.42 235.461 45.13 235.741 44.97C236.041 44.81 236.501 44.73 237.121 44.73H247.531C247.911 44.73 248.191 44.83 248.371 45.03C248.551 45.23 248.641 45.48 248.641 45.78C248.641 46.2 248.531 46.59 248.311 46.95C246.531 49.77 245.191 52.53 244.291 55.23C243.411 57.93 242.721 60.85 242.221 63.99C242.201 64.13 242.161 64.42 242.101 64.86C242.041 65.28 241.871 65.58 241.591 65.76C241.331 65.92 240.921 66 240.361 66C239.721 66 239.271 65.93 239.011 65.79C238.751 65.63 238.621 65.4 238.621 65.1C238.621 64.72 238.751 64.03 239.011 63.03C239.891 59.75 240.951 56.66 242.191 53.76C243.431 50.84 244.771 48.36 246.211 46.32H238.201V48.03C238.201 48.75 238.081 49.26 237.841 49.56C237.601 49.84 237.191 49.98 236.611 49.98C236.171 49.98 235.841 49.86 235.621 49.62C235.421 49.38 235.321 49 235.321 48.48V45.84Z" fill="#881337"/>
<path d="M79.2799 50.456C79.2799 50.1573 79.3386 49.9493 79.4559 49.832C79.5733 49.7147 79.7759 49.656 80.0639 49.656C80.3733 49.656 80.6026 49.72 80.7519 49.848C80.9013 49.976 80.9759 50.2267 80.9759 50.6V54.776H81.2479L85.3439 49.976C85.5146 49.7627 85.7226 49.656 85.9679 49.656C86.1279 49.656 86.2613 49.7093 86.3679 49.816C86.4746 49.9227 86.5279 50.04 86.5279 50.168C86.5279 50.2427 86.5013 50.3067 86.4479 50.36L82.4799 54.872L86.5759 59.944C86.7253 60.1147 86.7999 60.2693 86.7999 60.408C86.7999 60.568 86.7359 60.7067 86.6079 60.824C86.4906 60.9413 86.3359 61 86.1439 61C85.8773 61 85.6319 60.952 85.4079 60.856C85.1946 60.7493 84.9706 60.536 84.7359 60.216L81.2479 55.64H80.9759V60.04C80.9759 60.4027 80.9013 60.6533 80.7519 60.792C80.6133 60.9307 80.3946 61 80.0959 61C79.8079 61 79.5999 60.936 79.4719 60.808C79.3439 60.68 79.2799 60.4773 79.2799 60.2V55.64H79.0079L75.5199 60.216C75.2853 60.536 75.0559 60.7493 74.8319 60.856C74.6186 60.952 74.3786 61 74.1119 61C73.9199 61 73.7599 60.9413 73.6319 60.824C73.5146 60.7067 73.4559 60.568 73.4559 60.408C73.4559 60.2693 73.5306 60.1147 73.6799 59.944L77.7759 54.872L73.8079 50.36C73.7546 50.3067 73.7279 50.2427 73.7279 50.168C73.7279 50.04 73.7813 49.9227 73.8879 49.816C73.9946 49.7093 74.1279 49.656 74.2879 49.656C74.5333 49.656 74.7413 49.7627 74.9119 49.976L79.0079 54.776H79.2799V50.456ZM97.5282 50.504C97.7415 49.9387 98.0509 49.656 98.4562 49.656C98.6055 49.656 98.7229 49.7093 98.8082 49.816C98.9042 49.912 98.9522 50.0347 98.9522 50.184C98.9522 50.312 98.9255 50.4293 98.8722 50.536L95.8962 57.528C95.4909 58.4773 94.9789 59.2933 94.3602 59.976C93.7522 60.6587 93.0589 61 92.2802 61C92.0349 61 91.8375 60.9307 91.6882 60.792C91.5495 60.6427 91.4802 60.4187 91.4802 60.12C91.4802 59.9067 91.5549 59.7573 91.7042 59.672C91.8535 59.5867 92.1362 59.5173 92.5522 59.464C93.0322 59.4213 93.4215 59.272 93.7202 59.016C94.0189 58.76 94.2695 58.3813 94.4722 57.88L90.5202 50.616C90.4562 50.4987 90.4242 50.3653 90.4242 50.216C90.4242 50.056 90.4775 49.9227 90.5842 49.816C90.6909 49.7093 90.8295 49.656 91.0002 49.656C91.2775 49.656 91.5069 49.7147 91.6882 49.832C91.8802 49.9493 92.0615 50.168 92.2322 50.488L95.2402 56.12H95.3362L97.5282 50.504ZM113.932 61C113.292 61 112.972 60.5893 112.972 59.768V52.024H112.86L109.564 60.408C109.404 60.8027 109.18 61 108.892 61C108.593 61 108.364 60.8027 108.204 60.408L105.132 52.024H105.02V60.104C105.02 60.4133 104.951 60.6427 104.812 60.792C104.684 60.9307 104.535 61 104.364 61C104.193 61 104.049 60.9413 103.932 60.824C103.815 60.7067 103.756 60.5253 103.756 60.28V50.504C103.756 50.2373 103.857 50.0293 104.06 49.88C104.263 49.7307 104.503 49.656 104.78 49.656C105.015 49.656 105.244 49.72 105.468 49.848C105.703 49.9653 105.873 50.1573 105.98 50.424L109.052 58.92H109.132L112.476 50.504C112.583 50.2053 112.753 49.992 112.988 49.864C113.233 49.7253 113.495 49.656 113.772 49.656C114.049 49.656 114.252 49.7253 114.38 49.864C114.519 50.0027 114.588 50.216 114.588 50.504V60.2C114.588 60.4987 114.54 60.7067 114.444 60.824C114.348 60.9413 114.177 61 113.932 61ZM120.907 60.152C120.779 60.4933 120.63 60.7227 120.459 60.84C120.299 60.9467 120.123 61 119.931 61C119.782 61 119.67 60.9627 119.595 60.888C119.531 60.8027 119.499 60.696 119.499 60.568C119.499 60.44 119.526 60.3067 119.579 60.168L123.339 50.04C123.382 49.9227 123.483 49.832 123.643 49.768C123.814 49.6933 124.006 49.656 124.219 49.656C124.454 49.656 124.662 49.6933 124.843 49.768C125.035 49.8427 125.153 49.9493 125.195 50.088L128.859 60.232C128.881 60.3387 128.891 60.4187 128.891 60.472C128.891 60.6213 128.838 60.7493 128.731 60.856C128.635 60.952 128.481 61 128.267 61C128.043 61 127.814 60.9413 127.579 60.824C127.355 60.7067 127.185 60.4827 127.067 60.152L126.219 57.96H121.723L120.907 60.152ZM124.043 51.544H123.947L121.979 57.128H125.979L124.043 51.544Z" fill="#881337"/>
<line y1="36" x2="200" y2="36" stroke="#881337" stroke-width="2"/>
<line y1="72" x2="200" y2="72" stroke="#881337" stroke-width="2"/>
<path d="M351.048 51.432C350.92 51.4853 350.792 51.512 350.664 51.512C350.536 51.512 350.435 51.464 350.36 51.368C350.285 51.272 350.248 51.1653 350.248 51.048C350.248 50.888 350.36 50.7707 350.584 50.696L352.84 49.816C353.128 49.7093 353.416 49.656 353.704 49.656C353.992 49.656 354.2 49.72 354.328 49.848C354.456 49.976 354.52 50.1787 354.52 50.456V60.152H355.896C356.141 60.152 356.307 60.1947 356.392 60.28C356.488 60.3653 356.536 60.4773 356.536 60.616C356.536 60.7333 356.504 60.8293 356.44 60.904C356.376 60.968 356.248 61 356.056 61H351.288C351.096 61 350.968 60.968 350.904 60.904C350.84 60.8293 350.808 60.7333 350.808 60.616C350.808 60.4773 350.851 60.3653 350.936 60.28C351.032 60.1947 351.203 60.152 351.448 60.152H352.824V50.76L351.048 51.432ZM359.859 50.248C359.859 50.024 359.934 49.8693 360.083 49.784C360.243 49.6987 360.489 49.656 360.819 49.656H366.371C366.574 49.656 366.723 49.7093 366.819 49.816C366.915 49.9227 366.963 50.056 366.963 50.216C366.963 50.44 366.905 50.648 366.787 50.84C365.838 52.344 365.123 53.816 364.643 55.256C364.174 56.696 363.806 58.2533 363.539 59.928C363.529 60.0027 363.507 60.1573 363.475 60.392C363.443 60.616 363.353 60.776 363.203 60.872C363.065 60.9573 362.846 61 362.547 61C362.206 61 361.966 60.9627 361.827 60.888C361.689 60.8027 361.619 60.68 361.619 60.52C361.619 60.3173 361.689 59.9493 361.827 59.416C362.297 57.6667 362.862 56.0187 363.523 54.472C364.185 52.9147 364.899 51.592 365.667 50.504H361.395V51.416C361.395 51.8 361.331 52.072 361.203 52.232C361.075 52.3813 360.857 52.456 360.547 52.456C360.313 52.456 360.137 52.392 360.019 52.264C359.913 52.136 359.859 51.9333 359.859 51.656V50.248ZM371.304 54.344C371.304 53.9707 371.421 53.6667 371.656 53.432C371.89 53.1973 372.178 53.08 372.52 53.08C372.861 53.08 373.149 53.2027 373.384 53.448C373.618 53.6827 373.736 53.9813 373.736 54.344C373.736 54.696 373.618 54.9893 373.384 55.224C373.149 55.4587 372.861 55.576 372.52 55.576C372.178 55.576 371.89 55.4587 371.656 55.224C371.421 54.9893 371.304 54.696 371.304 54.344ZM371.304 59.768C371.304 59.3947 371.421 59.0907 371.656 58.856C371.89 58.6213 372.178 58.504 372.52 58.504C372.861 58.504 373.149 58.6267 373.384 58.872C373.618 59.1067 373.736 59.4053 373.736 59.768C373.736 60.12 373.618 60.4133 373.384 60.648C373.149 60.8827 372.861 61 372.52 61C372.178 61 371.89 60.8827 371.656 60.648C371.421 60.4133 371.304 60.12 371.304 59.768ZM377.887 55.336C377.887 53.64 378.18 52.2693 378.767 51.224C379.354 50.1787 380.292 49.656 381.583 49.656C382.874 49.656 383.812 50.1787 384.399 51.224C384.986 52.2693 385.279 53.64 385.279 55.336C385.279 57.0853 384.986 58.4667 384.399 59.48C383.823 60.4933 382.884 61 381.583 61C380.282 61 379.338 60.4933 378.751 59.48C378.175 58.4667 377.887 57.0853 377.887 55.336ZM383.519 55.336C383.519 53.9173 383.391 52.7547 383.135 51.848C382.879 50.9307 382.362 50.472 381.583 50.472C380.804 50.472 380.287 50.9307 380.031 51.848C379.775 52.7547 379.647 53.9173 379.647 55.336C379.647 56.3067 379.69 57.1387 379.775 57.832C379.86 58.5147 380.042 59.08 380.319 59.528C380.607 59.9653 381.028 60.184 381.583 60.184C382.138 60.184 382.554 59.9653 382.831 59.528C383.119 59.08 383.306 58.5147 383.391 57.832C383.476 57.1387 383.519 56.3067 383.519 55.336ZM389.011 55.336C389.011 53.64 389.305 52.2693 389.891 51.224C390.478 50.1787 391.417 49.656 392.707 49.656C393.998 49.656 394.937 50.1787 395.523 51.224C396.11 52.2693 396.403 53.64 396.403 55.336C396.403 57.0853 396.11 58.4667 395.523 59.48C394.947 60.4933 394.009 61 392.707 61C391.406 61 390.462 60.4933 389.875 59.48C389.299 58.4667 389.011 57.0853 389.011 55.336ZM394.643 55.336C394.643 53.9173 394.515 52.7547 394.259 51.848C394.003 50.9307 393.486 50.472 392.707 50.472C391.929 50.472 391.411 50.9307 391.155 51.848C390.899 52.7547 390.771 53.9173 390.771 55.336C390.771 56.3067 390.814 57.1387 390.899 57.832C390.985 58.5147 391.166 59.08 391.443 59.528C391.731 59.9653 392.153 60.184 392.707 60.184C393.262 60.184 393.678 59.9653 393.955 59.528C394.243 59.08 394.43 58.5147 394.515 57.832C394.601 57.1387 394.643 56.3067 394.643 55.336Z" fill="#881337"/>
<line x1="272" y1="36" x2="472" y2="36" stroke="#881337" stroke-width="2"/>
<line x1="272" y1="72" x2="472" y2="72" stroke="#881337" stroke-width="2"/>
<path d="M167.24 140.44C166.931 140.44 166.696 140.36 166.536 140.2C166.387 140.04 166.312 139.773 166.312 139.4V138.504H162.392V142.344H164.712C165.981 142.344 166.957 142.6 167.64 143.112C168.323 143.624 168.664 144.461 168.664 145.624C168.664 146.467 168.445 147.144 168.008 147.656C167.571 148.157 167.048 148.509 166.44 148.712C165.832 148.904 165.245 149 164.68 149H161.4C161.155 149 160.968 148.936 160.84 148.808C160.723 148.68 160.664 148.477 160.664 148.2V138.456C160.664 138.179 160.723 137.976 160.84 137.848C160.968 137.72 161.155 137.656 161.4 137.656H166.968C167.299 137.656 167.539 137.699 167.688 137.784C167.848 137.869 167.928 138.024 167.928 138.248V139.64C167.928 139.917 167.869 140.12 167.752 140.248C167.645 140.376 167.475 140.44 167.24 140.44ZM162.392 148.152H164.472C165.101 148.152 165.656 147.949 166.136 147.544C166.616 147.139 166.856 146.499 166.856 145.624C166.856 144.003 166.035 143.192 164.392 143.192H162.392V148.152ZM180.512 137.656C180.757 137.656 180.938 137.72 181.056 137.848C181.184 137.976 181.248 138.179 181.248 138.456V148.2C181.248 148.488 181.194 148.696 181.088 148.824C180.981 148.941 180.8 149 180.544 149C180.213 149 179.957 148.899 179.776 148.696C179.605 148.483 179.52 148.173 179.52 147.768V139.88L174.336 148.44C174.24 148.611 174.122 148.749 173.984 148.856C173.845 148.952 173.632 149 173.344 149C173.098 149 172.912 148.936 172.784 148.808C172.666 148.68 172.608 148.477 172.608 148.2V138.456C172.608 138.168 172.661 137.965 172.768 137.848C172.874 137.72 173.056 137.656 173.312 137.656C173.642 137.656 173.893 137.763 174.064 137.976C174.245 138.179 174.336 138.483 174.336 138.888V146.776L179.52 138.216C179.637 138.024 179.76 137.885 179.888 137.8C180.016 137.704 180.224 137.656 180.512 137.656ZM186.788 149C186.542 149 186.356 148.936 186.228 148.808C186.11 148.68 186.052 148.477 186.052 148.2V138.456C186.052 138.168 186.105 137.965 186.212 137.848C186.318 137.72 186.5 137.656 186.756 137.656C187.086 137.656 187.337 137.763 187.508 137.976C187.689 138.179 187.78 138.483 187.78 138.888V148.152H191.636V138.616C191.636 138.253 191.71 138.003 191.86 137.864C192.02 137.725 192.276 137.656 192.628 137.656C192.873 137.656 193.054 137.72 193.172 137.848C193.3 137.976 193.364 138.179 193.364 138.456V148.152H197.22V138.696C197.22 138.323 197.3 138.056 197.46 137.896C197.62 137.736 197.87 137.656 198.212 137.656C198.457 137.656 198.638 137.72 198.756 137.848C198.884 137.976 198.948 138.179 198.948 138.456V148.2C198.948 148.477 198.884 148.68 198.756 148.808C198.638 148.936 198.457 149 198.212 149H186.788ZM205.809 142.776L210.513 137.976C210.716 137.763 210.929 137.656 211.153 137.656C211.313 137.656 211.447 137.709 211.553 137.816C211.671 137.923 211.729 138.04 211.729 138.168C211.729 138.243 211.703 138.307 211.649 138.36L207.089 142.872L211.697 147.944C211.847 148.115 211.921 148.269 211.921 148.408C211.921 148.568 211.857 148.707 211.729 148.824C211.612 148.941 211.457 149 211.265 149C211.02 149 210.785 148.947 210.561 148.84C210.348 148.733 210.103 148.525 209.825 148.216L205.809 143.656H205.473V147.96C205.473 148.333 205.393 148.6 205.233 148.76C205.073 148.92 204.823 149 204.481 149C204.236 149 204.049 148.936 203.921 148.808C203.804 148.68 203.745 148.477 203.745 148.2V138.456C203.745 138.168 203.799 137.965 203.905 137.848C204.012 137.72 204.193 137.656 204.449 137.656C204.78 137.656 205.031 137.763 205.201 137.976C205.383 138.179 205.473 138.483 205.473 138.888V142.776H205.809ZM221.496 140.44C221.187 140.44 220.952 140.36 220.792 140.2C220.643 140.04 220.568 139.773 220.568 139.4V138.504H216.776V142.696H220.136C220.275 142.696 220.382 142.744 220.456 142.84C220.542 142.925 220.584 143.027 220.584 143.144C220.584 143.251 220.536 143.352 220.44 143.448C220.344 143.533 220.243 143.576 220.136 143.576H216.776V148.152H220.808V147.256C220.808 146.883 220.883 146.616 221.032 146.456C221.192 146.296 221.427 146.216 221.736 146.216C221.971 146.216 222.142 146.28 222.248 146.408C222.366 146.536 222.424 146.739 222.424 147.016V148.408C222.424 148.632 222.344 148.787 222.184 148.872C222.035 148.957 221.795 149 221.464 149H215.784C215.539 149 215.352 148.936 215.224 148.808C215.107 148.68 215.048 148.477 215.048 148.2V138.456C215.048 138.179 215.107 137.976 215.224 137.848C215.352 137.72 215.539 137.656 215.784 137.656H221.224C221.555 137.656 221.795 137.699 221.944 137.784C222.104 137.869 222.184 138.024 222.184 138.248V139.64C222.184 139.917 222.126 140.12 222.008 140.248C221.902 140.376 221.731 140.44 221.496 140.44ZM228.322 142.776L233.026 137.976C233.228 137.763 233.442 137.656 233.666 137.656C233.826 137.656 233.959 137.709 234.066 137.816C234.183 137.923 234.242 138.04 234.242 138.168C234.242 138.243 234.215 138.307 234.162 138.36L229.602 142.872L234.21 147.944C234.359 148.115 234.434 148.269 234.434 148.408C234.434 148.568 234.37 148.707 234.242 148.824C234.124 148.941 233.97 149 233.778 149C233.532 149 233.298 148.947 233.074 148.84C232.86 148.733 232.615 148.525 232.338 148.216L228.322 143.656H227.986V147.96C227.986 148.333 227.906 148.6 227.746 148.76C227.586 148.92 227.335 149 226.994 149C226.748 149 226.562 148.936 226.434 148.808C226.316 148.68 226.258 148.477 226.258 148.2V138.456C226.258 138.168 226.311 137.965 226.418 137.848C226.524 137.72 226.706 137.656 226.962 137.656C227.292 137.656 227.543 137.763 227.714 137.976C227.895 138.179 227.986 138.483 227.986 138.888V142.776H228.322ZM244.694 149C244.448 149 244.262 148.936 244.134 148.808C244.016 148.68 243.958 148.477 243.958 148.2V138.456C243.958 138.168 244.011 137.965 244.118 137.848C244.224 137.72 244.406 137.656 244.662 137.656C244.992 137.656 245.243 137.763 245.414 137.976C245.595 138.179 245.686 138.483 245.686 138.888V148.152H249.542V138.616C249.542 138.253 249.616 138.003 249.766 137.864C249.926 137.725 250.182 137.656 250.534 137.656C250.779 137.656 250.96 137.72 251.078 137.848C251.206 137.976 251.27 138.179 251.27 138.456V148.152H255.126V138.696C255.126 138.323 255.206 138.056 255.366 137.896C255.526 137.736 255.776 137.656 256.118 137.656C256.363 137.656 256.544 137.72 256.662 137.848C256.79 137.976 256.854 138.179 256.854 138.456V148.2C256.854 148.477 256.79 148.68 256.662 148.808C256.544 148.936 256.363 149 256.118 149H244.694ZM262.132 148.152C262.004 148.493 261.854 148.723 261.684 148.84C261.524 148.947 261.348 149 261.156 149C261.006 149 260.894 148.963 260.82 148.888C260.756 148.803 260.724 148.696 260.724 148.568C260.724 148.44 260.75 148.307 260.804 148.168L264.564 138.04C264.606 137.923 264.708 137.832 264.868 137.768C265.038 137.693 265.23 137.656 265.444 137.656C265.678 137.656 265.886 137.693 266.068 137.768C266.26 137.843 266.377 137.949 266.42 138.088L270.084 148.232C270.105 148.339 270.116 148.419 270.116 148.472C270.116 148.621 270.062 148.749 269.956 148.856C269.86 148.952 269.705 149 269.492 149C269.268 149 269.038 148.941 268.804 148.824C268.58 148.707 268.409 148.483 268.292 148.152L267.444 145.96H262.948L262.132 148.152ZM265.268 139.544H265.172L263.204 145.128H267.204L265.268 139.544ZM274.528 148.152C274.4 148.493 274.251 148.723 274.08 148.84C273.92 148.947 273.744 149 273.552 149C273.403 149 273.291 148.963 273.216 148.888C273.152 148.803 273.12 148.696 273.12 148.568C273.12 148.44 273.147 148.307 273.2 148.168L276.96 138.04C277.003 137.923 277.104 137.832 277.264 137.768C277.435 137.693 277.627 137.656 277.84 137.656C278.075 137.656 278.283 137.693 278.464 137.768C278.656 137.843 278.774 137.949 278.816 138.088L282.48 148.232C282.502 148.339 282.512 148.419 282.512 148.472C282.512 148.621 282.459 148.749 282.352 148.856C282.256 148.952 282.102 149 281.888 149C281.664 149 281.435 148.941 281.2 148.824C280.976 148.707 280.806 148.483 280.688 148.152L279.84 145.96H275.344L274.528 148.152ZM277.664 139.544H277.568L275.6 145.128H279.6L277.664 139.544ZM288.173 147.96C288.173 148.333 288.093 148.6 287.933 148.76C287.773 148.92 287.523 149 287.181 149C286.936 149 286.749 148.936 286.621 148.808C286.504 148.68 286.445 148.477 286.445 148.2V138.456C286.445 138.168 286.499 137.965 286.605 137.848C286.712 137.72 286.893 137.656 287.149 137.656H289.821C290.483 137.656 291.117 137.72 291.725 137.848C292.344 137.976 292.904 138.285 293.405 138.776C293.907 139.256 294.157 139.987 294.157 140.968C294.157 141.651 293.997 142.269 293.677 142.824C293.357 143.368 292.872 143.8 292.221 144.12C291.581 144.44 290.787 144.6 289.837 144.6H288.173V147.96ZM288.173 143.752H289.821C290.621 143.752 291.24 143.528 291.677 143.08C292.125 142.621 292.349 141.917 292.349 140.968C292.349 140.179 292.152 139.571 291.757 139.144C291.373 138.717 290.728 138.504 289.821 138.504H288.173V143.752ZM301.088 142.648C302.368 142.648 303.344 142.888 304.016 143.368C304.699 143.837 305.04 144.648 305.04 145.8C305.04 147.016 304.624 147.853 303.792 148.312C302.96 148.771 302.048 149 301.056 149H298.656C298.411 149 298.224 148.936 298.096 148.808C297.979 148.68 297.92 148.477 297.92 148.2V138.456C297.92 138.168 297.974 137.965 298.08 137.848C298.187 137.72 298.368 137.656 298.624 137.656C298.955 137.656 299.206 137.763 299.376 137.976C299.558 138.179 299.648 138.483 299.648 138.888V142.648H301.088ZM307.552 137.656C307.798 137.656 307.979 137.72 308.096 137.848C308.224 137.976 308.288 138.179 308.288 138.456V148.2C308.288 148.488 308.235 148.696 308.128 148.824C308.022 148.941 307.84 149 307.584 149C307.254 149 306.998 148.899 306.816 148.696C306.646 148.483 306.56 148.173 306.56 147.768V138.696C306.56 138.323 306.64 138.056 306.8 137.896C306.96 137.736 307.211 137.656 307.552 137.656ZM299.632 148.152H300.848C301.499 148.152 302.059 147.976 302.528 147.624C302.998 147.272 303.232 146.664 303.232 145.8C303.232 144.957 303.019 144.365 302.592 144.024C302.176 143.672 301.568 143.496 300.768 143.496H299.632V148.152ZM154.717 162.504C154.93 161.939 155.24 161.656 155.645 161.656C155.794 161.656 155.912 161.709 155.997 161.816C156.093 161.912 156.141 162.035 156.141 162.184C156.141 162.312 156.114 162.429 156.061 162.536L153.085 169.528C152.68 170.477 152.168 171.293 151.549 171.976C150.941 172.659 150.248 173 149.469 173C149.224 173 149.026 172.931 148.877 172.792C148.738 172.643 148.669 172.419 148.669 172.12C148.669 171.907 148.744 171.757 148.893 171.672C149.042 171.587 149.325 171.517 149.741 171.464C150.221 171.421 150.61 171.272 150.909 171.016C151.208 170.76 151.458 170.381 151.661 169.88L147.709 162.616C147.645 162.499 147.613 162.365 147.613 162.216C147.613 162.056 147.666 161.923 147.773 161.816C147.88 161.709 148.018 161.656 148.189 161.656C148.466 161.656 148.696 161.715 148.877 161.832C149.069 161.949 149.25 162.168 149.421 162.488L152.429 168.12H152.525L154.717 162.504ZM167.489 161.656C167.734 161.656 167.915 161.72 168.033 161.848C168.161 161.976 168.225 162.179 168.225 162.456V172.2C168.225 172.488 168.171 172.696 168.065 172.824C167.958 172.941 167.777 173 167.521 173C167.19 173 166.934 172.899 166.753 172.696C166.582 172.483 166.497 172.173 166.497 171.768V162.504H162.737V164.12C162.737 165.528 162.689 166.723 162.593 167.704C162.497 168.675 162.331 169.523 162.097 170.248C161.969 170.643 161.766 171.053 161.489 171.48C161.222 171.907 160.897 172.269 160.513 172.568C160.139 172.856 159.739 173 159.313 173C159.121 173 158.955 172.915 158.817 172.744C158.689 172.563 158.625 172.36 158.625 172.136C158.625 171.944 158.678 171.805 158.785 171.72C158.891 171.624 159.126 171.517 159.489 171.4C160.193 171.155 160.699 170.584 161.009 169.688C161.222 169.08 161.35 168.381 161.393 167.592C161.446 166.792 161.473 165.651 161.473 164.168V162.456C161.473 162.168 161.526 161.965 161.633 161.848C161.739 161.72 161.921 161.656 162.177 161.656H167.489ZM172.38 171.768C172.38 171.395 172.498 171.091 172.732 170.856C172.967 170.621 173.255 170.504 173.596 170.504C173.938 170.504 174.226 170.627 174.46 170.872C174.695 171.107 174.812 171.405 174.812 171.768C174.812 172.12 174.695 172.413 174.46 172.648C174.226 172.883 173.938 173 173.596 173C173.255 173 172.967 172.883 172.732 172.648C172.498 172.413 172.38 172.12 172.38 171.768ZM184.417 162.248C184.417 162.024 184.491 161.869 184.641 161.784C184.801 161.699 185.046 161.656 185.377 161.656H190.929C191.131 161.656 191.281 161.709 191.377 161.816C191.473 161.923 191.521 162.056 191.521 162.216C191.521 162.44 191.462 162.648 191.345 162.84C190.395 164.344 189.681 165.816 189.201 167.256C188.731 168.696 188.363 170.253 188.097 171.928C188.086 172.003 188.065 172.157 188.033 172.392C188.001 172.616 187.91 172.776 187.761 172.872C187.622 172.957 187.403 173 187.105 173C186.763 173 186.523 172.963 186.385 172.888C186.246 172.803 186.177 172.68 186.177 172.52C186.177 172.317 186.246 171.949 186.385 171.416C186.854 169.667 187.419 168.019 188.081 166.472C188.742 164.915 189.457 163.592 190.225 162.504H185.953V163.416C185.953 163.8 185.889 164.072 185.761 164.232C185.633 164.381 185.414 164.456 185.105 164.456C184.87 164.456 184.694 164.392 184.577 164.264C184.47 164.136 184.417 163.933 184.417 163.656V162.248ZM202.338 172.152C202.21 172.493 202.06 172.723 201.89 172.84C201.73 172.947 201.554 173 201.362 173C201.212 173 201.1 172.963 201.026 172.888C200.962 172.803 200.93 172.696 200.93 172.568C200.93 172.44 200.956 172.307 201.01 172.168L204.77 162.04C204.812 161.923 204.914 161.832 205.074 161.768C205.244 161.693 205.436 161.656 205.65 161.656C205.884 161.656 206.092 161.693 206.274 161.768C206.466 161.843 206.583 161.949 206.626 162.088L210.29 172.232C210.311 172.339 210.322 172.419 210.322 172.472C210.322 172.621 210.268 172.749 210.162 172.856C210.066 172.952 209.911 173 209.698 173C209.474 173 209.244 172.941 209.01 172.824C208.786 172.707 208.615 172.483 208.498 172.152L207.65 169.96H203.154L202.338 172.152ZM205.474 163.544H205.378L203.41 169.128H207.41L205.474 163.544ZM222.143 161.656C222.388 161.656 222.569 161.72 222.687 161.848C222.815 161.976 222.879 162.179 222.879 162.456V172.2C222.879 172.488 222.825 172.696 222.719 172.824C222.612 172.941 222.431 173 222.175 173C221.844 173 221.588 172.899 221.407 172.696C221.236 172.483 221.151 172.173 221.151 171.768V162.504H215.983V171.96C215.983 172.333 215.903 172.6 215.743 172.76C215.583 172.92 215.332 173 214.991 173C214.745 173 214.559 172.936 214.431 172.808C214.313 172.68 214.255 172.477 214.255 172.2V162.456C214.255 162.168 214.308 161.965 214.415 161.848C214.521 161.72 214.703 161.656 214.959 161.656H222.143ZM229.411 171.96C229.411 172.333 229.331 172.6 229.171 172.76C229.011 172.92 228.76 173 228.419 173C228.173 173 227.987 172.936 227.859 172.808C227.741 172.68 227.683 172.477 227.683 172.2V162.456C227.683 162.168 227.736 161.965 227.843 161.848C227.949 161.72 228.131 161.656 228.387 161.656H231.059C231.72 161.656 232.355 161.72 232.963 161.848C233.581 161.976 234.141 162.285 234.643 162.776C235.144 163.256 235.395 163.987 235.395 164.968C235.395 165.651 235.235 166.269 234.915 166.824C234.595 167.368 234.109 167.8 233.459 168.12C232.819 168.44 232.024 168.6 231.075 168.6H229.411V171.96ZM229.411 167.752H231.059C231.859 167.752 232.477 167.528 232.915 167.08C233.363 166.621 233.587 165.917 233.587 164.968C233.587 164.179 233.389 163.571 232.995 163.144C232.611 162.717 231.965 162.504 231.059 162.504H229.411V167.752ZM245.606 164.44C245.296 164.44 245.062 164.36 244.902 164.2C244.752 164.04 244.678 163.773 244.678 163.4V162.504H240.886V166.696H244.246C244.384 166.696 244.491 166.744 244.566 166.84C244.651 166.925 244.694 167.027 244.694 167.144C244.694 167.251 244.646 167.352 244.55 167.448C244.454 167.533 244.352 167.576 244.246 167.576H240.886V172.152H244.918V171.256C244.918 170.883 244.992 170.616 245.142 170.456C245.302 170.296 245.536 170.216 245.846 170.216C246.08 170.216 246.251 170.28 246.358 170.408C246.475 170.536 246.534 170.739 246.534 171.016V172.408C246.534 172.632 246.454 172.787 246.294 172.872C246.144 172.957 245.904 173 245.574 173H239.894C239.648 173 239.462 172.936 239.334 172.808C239.216 172.68 239.158 172.477 239.158 172.2V162.456C239.158 162.179 239.216 161.976 239.334 161.848C239.462 161.72 239.648 161.656 239.894 161.656H245.334C245.664 161.656 245.904 161.699 246.054 161.784C246.214 161.869 246.294 162.024 246.294 162.248V163.64C246.294 163.917 246.235 164.12 246.118 164.248C246.011 164.376 245.84 164.44 245.606 164.44ZM257.951 161.656C258.197 161.656 258.378 161.72 258.495 161.848C258.623 161.976 258.687 162.179 258.687 162.456V172.2C258.687 172.488 258.634 172.696 258.527 172.824C258.421 172.941 258.239 173 257.983 173C257.653 173 257.397 172.899 257.215 172.696C257.045 172.483 256.959 172.173 256.959 171.768V162.504H253.199V164.12C253.199 165.528 253.151 166.723 253.055 167.704C252.959 168.675 252.794 169.523 252.559 170.248C252.431 170.643 252.229 171.053 251.951 171.48C251.685 171.907 251.359 172.269 250.975 172.568C250.602 172.856 250.202 173 249.775 173C249.583 173 249.418 172.915 249.279 172.744C249.151 172.563 249.087 172.36 249.087 172.136C249.087 171.944 249.141 171.805 249.247 171.72C249.354 171.624 249.589 171.517 249.951 171.4C250.655 171.155 251.162 170.584 251.471 169.688C251.685 169.08 251.813 168.381 251.855 167.592C251.909 166.792 251.935 165.651 251.935 164.168V162.456C251.935 162.168 251.989 161.965 252.095 161.848C252.202 161.72 252.383 161.656 252.639 161.656H257.951ZM270.571 172.2C270.571 172.477 270.507 172.68 270.379 172.808C270.261 172.936 270.08 173 269.835 173C269.493 173 269.243 172.92 269.083 172.76C268.923 172.6 268.843 172.333 268.843 171.96V167.976H267.387L264.699 172.392C264.571 172.605 264.411 172.76 264.219 172.856C264.027 172.952 263.824 173 263.611 173C263.344 173 263.141 172.952 263.003 172.856C262.864 172.76 262.795 172.632 262.795 172.472C262.795 172.333 262.843 172.195 262.939 172.056L265.595 167.864C265.125 167.811 264.677 167.661 264.251 167.416C263.824 167.16 263.472 166.824 263.195 166.408C262.928 165.981 262.795 165.507 262.795 164.984C262.795 163.821 263.168 162.979 263.915 162.456C264.672 161.923 265.648 161.656 266.843 161.656H269.867C270.123 161.656 270.304 161.72 270.411 161.848C270.517 161.965 270.571 162.168 270.571 162.456V172.2ZM267.003 162.504C266.395 162.504 265.84 162.68 265.339 163.032C264.848 163.384 264.603 164.003 264.603 164.888C264.603 165.709 264.843 166.291 265.323 166.632C265.803 166.963 266.405 167.128 267.131 167.128H268.843V162.504H267.003ZM282.161 163.432C282.033 163.485 281.905 163.512 281.777 163.512C281.649 163.512 281.548 163.464 281.473 163.368C281.398 163.272 281.361 163.165 281.361 163.048C281.361 162.888 281.473 162.771 281.697 162.696L283.953 161.816C284.241 161.709 284.529 161.656 284.817 161.656C285.105 161.656 285.313 161.72 285.441 161.848C285.569 161.976 285.633 162.179 285.633 162.456V172.152H287.009C287.254 172.152 287.42 172.195 287.505 172.28C287.601 172.365 287.649 172.477 287.649 172.616C287.649 172.733 287.617 172.829 287.553 172.904C287.489 172.968 287.361 173 287.169 173H282.401C282.209 173 282.081 172.968 282.017 172.904C281.953 172.829 281.921 172.733 281.921 172.616C281.921 172.477 281.964 172.365 282.049 172.28C282.145 172.195 282.316 172.152 282.561 172.152H283.937V162.76L282.161 163.432ZM289.932 162.248C289.932 162.024 290.007 161.869 290.156 161.784C290.316 161.699 290.562 161.656 290.892 161.656H296.444C296.647 161.656 296.796 161.709 296.892 161.816C296.988 161.923 297.036 162.056 297.036 162.216C297.036 162.44 296.978 162.648 296.86 162.84C295.911 164.344 295.196 165.816 294.716 167.256C294.247 168.696 293.879 170.253 293.612 171.928C293.602 172.003 293.58 172.157 293.548 172.392C293.516 172.616 293.426 172.776 293.276 172.872C293.138 172.957 292.919 173 292.62 173C292.279 173 292.039 172.963 291.9 172.888C291.762 172.803 291.692 172.68 291.692 172.52C291.692 172.317 291.762 171.949 291.9 171.416C292.37 169.667 292.935 168.019 293.596 166.472C294.258 164.915 294.972 163.592 295.74 162.504H291.468V163.416C291.468 163.8 291.404 164.072 291.276 164.232C291.148 164.381 290.93 164.456 290.62 164.456C290.386 164.456 290.21 164.392 290.092 164.264C289.986 164.136 289.932 163.933 289.932 163.656V162.248ZM303.244 170.232H298.588C298.289 170.232 298.14 170.104 298.14 169.848C298.14 169.741 298.177 169.613 298.252 169.464L303.004 162.248C303.26 161.853 303.633 161.656 304.124 161.656C304.412 161.656 304.62 161.72 304.748 161.848C304.876 161.976 304.94 162.179 304.94 162.456V169.384H305.932C306.177 169.384 306.342 169.427 306.428 169.512C306.524 169.597 306.572 169.709 306.572 169.848C306.572 169.965 306.54 170.061 306.476 170.136C306.412 170.2 306.284 170.232 306.092 170.232H304.94V172.152H305.852C306.097 172.152 306.262 172.195 306.348 172.28C306.444 172.365 306.492 172.477 306.492 172.616C306.492 172.733 306.46 172.829 306.396 172.904C306.332 172.968 306.204 173 306.012 173H301.852C301.66 173 301.532 172.968 301.468 172.904C301.404 172.829 301.372 172.733 301.372 172.616C301.372 172.477 301.414 172.365 301.5 172.28C301.596 172.195 301.766 172.152 302.012 172.152H303.244V170.232ZM303.244 163.752L299.484 169.384H303.244V163.752ZM309.968 176.2C309.925 176.264 309.856 176.296 309.76 176.296C309.6 176.296 309.429 176.237 309.248 176.12C309.067 176.003 308.976 175.891 308.976 175.784C308.976 175.752 308.981 175.725 308.992 175.704L317.248 161.08C317.28 161.016 317.349 160.984 317.456 160.984C317.616 160.984 317.787 161.048 317.968 161.176C318.16 161.304 318.256 161.432 318.256 161.56C318.256 161.603 318.251 161.635 318.24 161.656L309.968 176.2ZM322.655 163.432C322.527 163.485 322.399 163.512 322.271 163.512C322.143 163.512 322.041 163.464 321.967 163.368C321.892 163.272 321.855 163.165 321.855 163.048C321.855 162.888 321.967 162.771 322.191 162.696L324.447 161.816C324.735 161.709 325.023 161.656 325.311 161.656C325.599 161.656 325.807 161.72 325.935 161.848C326.063 161.976 326.127 162.179 326.127 162.456V172.152H327.503C327.748 172.152 327.913 172.195 327.999 172.28C328.095 172.365 328.143 172.477 328.143 172.616C328.143 172.733 328.111 172.829 328.047 172.904C327.983 172.968 327.855 173 327.663 173H322.895C322.703 173 322.575 172.968 322.511 172.904C322.447 172.829 322.415 172.733 322.415 172.616C322.415 172.477 322.457 172.365 322.543 172.28C322.639 172.195 322.809 172.152 323.055 172.152H324.431V162.76L322.655 163.432ZM200.012 185.592C200.012 185.432 200.097 185.315 200.268 185.24C200.438 185.155 200.668 185.112 200.956 185.112C201.233 185.112 201.462 185.155 201.644 185.24C201.825 185.325 201.916 185.443 201.916 185.592L201.388 188.76C201.377 188.835 201.329 188.893 201.244 188.936C201.158 188.968 201.062 188.984 200.956 188.984C200.849 188.984 200.753 188.963 200.668 188.92C200.582 188.877 200.534 188.824 200.524 188.76L200.012 185.592ZM202.812 185.592C202.812 185.432 202.897 185.315 203.068 185.24C203.249 185.155 203.478 185.112 203.756 185.112C204.033 185.112 204.262 185.155 204.444 185.24C204.625 185.325 204.716 185.443 204.716 185.592L204.188 188.76C204.177 188.835 204.129 188.893 204.044 188.936C203.958 188.968 203.862 188.984 203.756 188.984C203.649 188.984 203.553 188.963 203.468 188.92C203.382 188.877 203.334 188.824 203.324 188.76L202.812 185.592ZM207.763 196.152C207.635 196.493 207.485 196.723 207.315 196.84C207.155 196.947 206.979 197 206.787 197C206.637 197 206.525 196.963 206.451 196.888C206.387 196.803 206.355 196.696 206.355 196.568C206.355 196.44 206.381 196.307 206.435 196.168L210.195 186.04C210.237 185.923 210.339 185.832 210.499 185.768C210.669 185.693 210.861 185.656 211.075 185.656C211.309 185.656 211.517 185.693 211.699 185.768C211.891 185.843 212.008 185.949 212.051 186.088L215.715 196.232C215.736 196.339 215.747 196.419 215.747 196.472C215.747 196.621 215.693 196.749 215.587 196.856C215.491 196.952 215.336 197 215.123 197C214.899 197 214.669 196.941 214.435 196.824C214.211 196.707 214.04 196.483 213.923 196.152L213.075 193.96H208.579L207.763 196.152ZM210.899 187.544H210.803L208.835 193.128H212.835L210.899 187.544ZM225.971 188.536C225.662 188.536 225.427 188.456 225.267 188.296C225.118 188.136 225.043 187.869 225.043 187.496V186.6C224.649 186.515 224.259 186.472 223.875 186.472C222.862 186.472 222.057 186.899 221.459 187.752C220.873 188.595 220.579 189.832 220.579 191.464C220.579 193.203 220.867 194.424 221.443 195.128C222.019 195.821 222.867 196.168 223.987 196.168C224.649 196.168 225.347 196.013 226.083 195.704L226.387 195.576C226.451 195.555 226.494 195.544 226.515 195.544C226.622 195.544 226.713 195.597 226.787 195.704C226.862 195.8 226.899 195.907 226.899 196.024C226.899 196.173 226.83 196.28 226.691 196.344L226.419 196.456C225.982 196.637 225.539 196.776 225.091 196.872C224.654 196.957 224.137 197 223.539 197C221.918 197 220.718 196.52 219.939 195.56C219.161 194.589 218.771 193.213 218.771 191.432C218.771 190.141 218.979 189.064 219.395 188.2C219.822 187.336 220.403 186.696 221.139 186.28C221.875 185.864 222.718 185.656 223.667 185.656C224.521 185.656 225.299 185.768 226.003 185.992C226.259 186.077 226.43 186.173 226.515 186.28C226.611 186.376 226.659 186.541 226.659 186.776V187.736C226.659 188.013 226.601 188.216 226.483 188.344C226.377 188.472 226.206 188.536 225.971 188.536ZM240.596 197C239.956 197 239.636 196.589 239.636 195.768V188.024H239.524L236.228 196.408C236.068 196.803 235.844 197 235.556 197C235.258 197 235.028 196.803 234.868 196.408L231.796 188.024H231.684V196.104C231.684 196.413 231.615 196.643 231.476 196.792C231.348 196.931 231.199 197 231.028 197C230.858 197 230.714 196.941 230.596 196.824C230.479 196.707 230.42 196.525 230.42 196.28V186.504C230.42 186.237 230.522 186.029 230.724 185.88C230.927 185.731 231.167 185.656 231.444 185.656C231.679 185.656 231.908 185.72 232.132 185.848C232.367 185.965 232.538 186.157 232.644 186.424L235.716 194.92H235.796L239.14 186.504C239.247 186.205 239.418 185.992 239.652 185.864C239.898 185.725 240.159 185.656 240.436 185.656C240.714 185.656 240.916 185.725 241.044 185.864C241.183 186.003 241.252 186.216 241.252 186.504V196.2C241.252 196.499 241.204 196.707 241.108 196.824C241.012 196.941 240.842 197 240.596 197ZM246.532 196.152C246.404 196.493 246.254 196.723 246.084 196.84C245.924 196.947 245.748 197 245.556 197C245.406 197 245.294 196.963 245.22 196.888C245.156 196.803 245.124 196.696 245.124 196.568C245.124 196.44 245.15 196.307 245.204 196.168L248.964 186.04C249.006 185.923 249.108 185.832 249.268 185.768C249.438 185.693 249.63 185.656 249.844 185.656C250.078 185.656 250.286 185.693 250.468 185.768C250.66 185.843 250.777 185.949 250.82 186.088L254.484 196.232C254.505 196.339 254.516 196.419 254.516 196.472C254.516 196.621 254.462 196.749 254.356 196.856C254.26 196.952 254.105 197 253.892 197C253.668 197 253.438 196.941 253.204 196.824C252.98 196.707 252.809 196.483 252.692 196.152L251.844 193.96H247.348L246.532 196.152ZM249.668 187.544H249.572L247.604 193.128H251.604L249.668 187.544ZM266.384 185.656C266.63 185.656 266.811 185.72 266.928 185.848C267.056 185.976 267.12 186.179 267.12 186.456V196.2C267.12 196.488 267.067 196.696 266.96 196.824C266.854 196.941 266.672 197 266.416 197C266.086 197 265.83 196.899 265.648 196.696C265.478 196.483 265.392 196.173 265.392 195.768V191.576H260.176V195.96C260.176 196.333 260.096 196.6 259.936 196.76C259.776 196.92 259.526 197 259.184 197C258.939 197 258.752 196.936 258.624 196.808C258.507 196.68 258.448 196.477 258.448 196.2V186.456C258.448 186.168 258.502 185.965 258.608 185.848C258.715 185.72 258.896 185.656 259.152 185.656C259.483 185.656 259.734 185.763 259.904 185.976C260.086 186.179 260.176 186.483 260.176 186.888V190.696H265.392V186.696C265.392 186.323 265.472 186.056 265.632 185.896C265.792 185.736 266.043 185.656 266.384 185.656ZM271.283 185.592C271.283 185.432 271.369 185.315 271.539 185.24C271.71 185.155 271.939 185.112 272.227 185.112C272.505 185.112 272.734 185.155 272.915 185.24C273.097 185.325 273.187 185.443 273.187 185.592L272.659 188.76C272.649 188.835 272.601 188.893 272.515 188.936C272.43 188.968 272.334 188.984 272.227 188.984C272.121 188.984 272.025 188.963 271.939 188.92C271.854 188.877 271.806 188.824 271.795 188.76L271.283 185.592ZM274.083 185.592C274.083 185.432 274.169 185.315 274.339 185.24C274.521 185.155 274.75 185.112 275.027 185.112C275.305 185.112 275.534 185.155 275.715 185.24C275.897 185.325 275.987 185.443 275.987 185.592L275.459 188.76C275.449 188.835 275.401 188.893 275.315 188.936C275.23 188.968 275.134 188.984 275.027 188.984C274.921 188.984 274.825 188.963 274.739 188.92C274.654 188.877 274.606 188.824 274.595 188.76L274.083 185.592ZM186.858 219.96C186.858 220.333 186.778 220.6 186.618 220.76C186.458 220.92 186.207 221 185.866 221C185.62 221 185.434 220.936 185.306 220.808C185.188 220.68 185.13 220.477 185.13 220.2V210.456C185.13 210.168 185.183 209.965 185.29 209.848C185.396 209.72 185.578 209.656 185.834 209.656H188.506C189.167 209.656 189.802 209.72 190.41 209.848C191.028 209.976 191.588 210.285 192.09 210.776C192.591 211.256 192.842 211.987 192.842 212.968C192.842 213.651 192.682 214.269 192.362 214.824C192.042 215.368 191.556 215.8 190.906 216.12C190.266 216.44 189.471 216.6 188.522 216.6H186.858V219.96ZM186.858 215.752H188.506C189.306 215.752 189.924 215.528 190.362 215.08C190.81 214.621 191.034 213.917 191.034 212.968C191.034 212.179 190.836 211.571 190.442 211.144C190.058 210.717 189.412 210.504 188.506 210.504H186.858V215.752ZM203.053 212.44C202.743 212.44 202.509 212.36 202.349 212.2C202.199 212.04 202.125 211.773 202.125 211.4V210.504H198.333V214.696H201.693C201.831 214.696 201.938 214.744 202.013 214.84C202.098 214.925 202.141 215.027 202.141 215.144C202.141 215.251 202.093 215.352 201.997 215.448C201.901 215.533 201.799 215.576 201.693 215.576H198.333V220.152H202.365V219.256C202.365 218.883 202.439 218.616 202.589 218.456C202.749 218.296 202.983 218.216 203.293 218.216C203.527 218.216 203.698 218.28 203.805 218.408C203.922 218.536 203.981 218.739 203.981 219.016V220.408C203.981 220.632 203.901 220.787 203.741 220.872C203.591 220.957 203.351 221 203.021 221H197.341C197.095 221 196.909 220.936 196.781 220.808C196.663 220.68 196.605 220.477 196.605 220.2V210.456C196.605 210.179 196.663 209.976 196.781 209.848C196.909 209.72 197.095 209.656 197.341 209.656H202.781C203.111 209.656 203.351 209.699 203.501 209.784C203.661 209.869 203.741 210.024 203.741 210.248V211.64C203.741 211.917 203.682 212.12 203.565 212.248C203.458 212.376 203.287 212.44 203.053 212.44ZM214.262 212.536C213.953 212.536 213.718 212.456 213.558 212.296C213.409 212.136 213.334 211.869 213.334 211.496V210.6C212.939 210.515 212.55 210.472 212.166 210.472C211.153 210.472 210.347 210.899 209.75 211.752C209.163 212.595 208.87 213.832 208.87 215.464C208.87 217.203 209.158 218.424 209.734 219.128C210.31 219.821 211.158 220.168 212.278 220.168C212.939 220.168 213.638 220.013 214.374 219.704L214.678 219.576C214.742 219.555 214.785 219.544 214.806 219.544C214.913 219.544 215.003 219.597 215.078 219.704C215.153 219.8 215.19 219.907 215.19 220.024C215.19 220.173 215.121 220.28 214.982 220.344L214.71 220.456C214.273 220.637 213.83 220.776 213.382 220.872C212.945 220.957 212.427 221 211.83 221C210.209 221 209.009 220.52 208.23 219.56C207.451 218.589 207.062 217.213 207.062 215.432C207.062 214.141 207.27 213.064 207.686 212.2C208.113 211.336 208.694 210.696 209.43 210.28C210.166 209.864 211.009 209.656 211.958 209.656C212.811 209.656 213.59 209.768 214.294 209.992C214.55 210.077 214.721 210.173 214.806 210.28C214.902 210.376 214.95 210.541 214.95 210.776V211.736C214.95 212.013 214.891 212.216 214.774 212.344C214.667 212.472 214.497 212.536 214.262 212.536ZM223.175 220.04C223.175 220.403 223.095 220.653 222.935 220.792C222.786 220.931 222.535 221 222.183 221C221.938 221 221.751 220.936 221.623 220.808C221.506 220.68 221.447 220.477 221.447 220.2V210.504H219.047V211.64C219.047 212.013 218.967 212.28 218.807 212.44C218.658 212.6 218.428 212.68 218.119 212.68C217.884 212.68 217.708 212.616 217.591 212.488C217.484 212.36 217.431 212.157 217.431 211.88V210.248C217.431 210.024 217.506 209.869 217.655 209.784C217.815 209.699 218.06 209.656 218.391 209.656H226.231C226.562 209.656 226.802 209.699 226.951 209.784C227.111 209.869 227.191 210.024 227.191 210.248V211.88C227.191 212.157 227.132 212.36 227.015 212.488C226.908 212.616 226.738 212.68 226.503 212.68C226.194 212.68 225.959 212.6 225.799 212.44C225.65 212.28 225.575 212.013 225.575 211.64V210.504H223.175V220.04ZM239.413 215.336C239.413 216.136 239.29 216.957 239.045 217.8C238.81 218.643 238.33 219.389 237.605 220.04C236.879 220.68 235.85 221 234.517 221C233.183 221 232.154 220.68 231.429 220.04C230.714 219.389 230.239 218.643 230.005 217.8C229.77 216.957 229.653 216.136 229.653 215.336C229.653 214.536 229.77 213.715 230.005 212.872C230.239 212.029 230.714 211.283 231.429 210.632C232.154 209.981 233.183 209.656 234.517 209.656C235.85 209.656 236.879 209.981 237.605 210.632C238.33 211.283 238.81 212.035 239.045 212.888C239.29 213.731 239.413 214.547 239.413 215.336ZM237.605 215.336C237.605 214.099 237.397 212.979 236.981 211.976C236.565 210.973 235.743 210.472 234.517 210.472C233.311 210.472 232.501 210.973 232.085 211.976C231.669 212.979 231.461 214.099 231.461 215.336C231.461 216.563 231.669 217.677 232.085 218.68C232.501 219.683 233.311 220.184 234.517 220.184C235.743 220.184 236.565 219.688 236.981 218.696C237.397 217.693 237.605 216.573 237.605 215.336ZM245.186 219.96C245.186 220.333 245.106 220.6 244.946 220.76C244.786 220.92 244.535 221 244.194 221C243.948 221 243.762 220.936 243.634 220.808C243.516 220.68 243.458 220.477 243.458 220.2V210.456C243.458 210.168 243.511 209.965 243.618 209.848C243.724 209.72 243.906 209.656 244.162 209.656H246.834C247.495 209.656 248.13 209.72 248.738 209.848C249.356 209.976 249.916 210.285 250.418 210.776C250.919 211.256 251.17 211.987 251.17 212.968C251.17 213.651 251.01 214.269 250.69 214.824C250.37 215.368 249.884 215.8 249.234 216.12C248.594 216.44 247.799 216.6 246.85 216.6H245.186V219.96ZM245.186 215.752H246.834C247.634 215.752 248.252 215.528 248.69 215.08C249.138 214.621 249.362 213.917 249.362 212.968C249.362 212.179 249.164 211.571 248.77 211.144C248.386 210.717 247.74 210.504 246.834 210.504H245.186V215.752ZM254.46 220.152C254.332 220.493 254.182 220.723 254.012 220.84C253.852 220.947 253.676 221 253.484 221C253.334 221 253.222 220.963 253.148 220.888C253.084 220.803 253.052 220.696 253.052 220.568C253.052 220.44 253.078 220.307 253.132 220.168L256.892 210.04C256.934 209.923 257.036 209.832 257.196 209.768C257.366 209.693 257.558 209.656 257.772 209.656C258.006 209.656 258.214 209.693 258.396 209.768C258.588 209.843 258.705 209.949 258.748 210.088L262.412 220.232C262.433 220.339 262.444 220.419 262.444 220.472C262.444 220.621 262.39 220.749 262.284 220.856C262.188 220.952 262.033 221 261.82 221C261.596 221 261.366 220.941 261.132 220.824C260.908 220.707 260.737 220.483 260.62 220.152L259.772 217.96H255.276L254.46 220.152ZM257.596 211.544H257.5L255.532 217.128H259.532L257.596 211.544ZM274.313 209.656C274.558 209.656 274.739 209.72 274.857 209.848C274.985 209.976 275.049 210.179 275.049 210.456V220.2C275.049 220.488 274.995 220.696 274.889 220.824C274.782 220.941 274.601 221 274.345 221C274.014 221 273.758 220.899 273.577 220.696C273.406 220.483 273.321 220.173 273.321 219.768V215.576H268.105V219.96C268.105 220.333 268.025 220.6 267.865 220.76C267.705 220.92 267.454 221 267.113 221C266.867 221 266.681 220.936 266.553 220.808C266.435 220.68 266.377 220.477 266.377 220.2V210.456C266.377 210.168 266.43 209.965 266.537 209.848C266.643 209.72 266.825 209.656 267.081 209.656C267.411 209.656 267.662 209.763 267.833 209.976C268.014 210.179 268.105 210.483 268.105 210.888V214.696H273.321V210.696C273.321 210.323 273.401 210.056 273.561 209.896C273.721 209.736 273.971 209.656 274.313 209.656ZM283.02 214.648C284.3 214.648 285.276 214.888 285.948 215.368C286.63 215.837 286.972 216.648 286.972 217.8C286.972 219.016 286.556 219.853 285.724 220.312C284.892 220.771 283.98 221 282.988 221H280.588C280.342 221 280.156 220.936 280.028 220.808C279.91 220.68 279.852 220.477 279.852 220.2V210.456C279.852 210.168 279.905 209.965 280.012 209.848C280.118 209.72 280.3 209.656 280.556 209.656C280.886 209.656 281.137 209.763 281.308 209.976C281.489 210.179 281.58 210.483 281.58 210.888V214.648H283.02ZM289.484 209.656C289.729 209.656 289.91 209.72 290.028 209.848C290.156 209.976 290.22 210.179 290.22 210.456V220.2C290.22 220.488 290.166 220.696 290.06 220.824C289.953 220.941 289.772 221 289.516 221C289.185 221 288.929 220.899 288.748 220.696C288.577 220.483 288.492 220.173 288.492 219.768V210.696C288.492 210.323 288.572 210.056 288.732 209.896C288.892 209.736 289.142 209.656 289.484 209.656ZM281.564 220.152H282.78C283.43 220.152 283.99 219.976 284.46 219.624C284.929 219.272 285.164 218.664 285.164 217.8C285.164 216.957 284.95 216.365 284.524 216.024C284.108 215.672 283.5 215.496 282.7 215.496H281.564V220.152Z" fill="#881337"/>
</svg>
