<svg width="472" height="200" viewBox="0 0 472 200" fill="none" xmlns="http://www.w3.org/2000/svg">
<path d="M223.248 17C222.528 17 222.168 16.538 222.168 15.614V6.902H222.042L218.334 16.334C218.154 16.778 217.902 17 217.578 17C217.242 17 216.984 16.778 216.804 16.334L213.348 6.902H213.222V15.992C213.222 16.34 213.144 16.598 212.988 16.766C212.844 16.922 212.676 17 212.484 17C212.292 17 212.13 16.934 211.998 16.802C211.866 16.67 211.8 16.466 211.8 16.19V5.192C211.8 4.892 211.914 4.658 212.142 4.49C212.37 4.322 212.64 4.238 212.952 4.238C213.216 4.238 213.474 4.31 213.726 4.454C213.99 4.586 214.182 4.802 214.302 5.102L217.758 14.66H217.848L221.61 5.192C221.73 4.856 221.922 4.616 222.186 4.472C222.462 4.316 222.756 4.238 223.068 4.238C223.38 4.238 223.608 4.316 223.752 4.472C223.908 4.628 223.986 4.868 223.986 5.192V16.1C223.986 16.436 223.932 16.67 223.824 16.802C223.716 16.934 223.524 17 223.248 17ZM228.125 16.046C227.981 16.43 227.813 16.688 227.621 16.82C227.441 16.94 227.243 17 227.027 17C226.859 17 226.733 16.958 226.649 16.874C226.577 16.778 226.541 16.658 226.541 16.514C226.541 16.37 226.571 16.22 226.631 16.064L230.861 4.67C230.909 4.538 231.023 4.436 231.203 4.364C231.395 4.28 231.611 4.238 231.851 4.238C232.115 4.238 232.349 4.28 232.553 4.364C232.769 4.448 232.901 4.568 232.949 4.724L237.071 16.136C237.095 16.256 237.107 16.346 237.107 16.406C237.107 16.574 237.047 16.718 236.927 16.838C236.819 16.946 236.645 17 236.405 17C236.153 17 235.895 16.934 235.631 16.802C235.379 16.67 235.187 16.418 235.055 16.046L234.101 13.58H229.043L228.125 16.046ZM231.653 6.362H231.545L229.331 12.644H233.831L231.653 6.362ZM241.676 15.83C241.676 16.25 241.586 16.55 241.406 16.73C241.226 16.91 240.944 17 240.56 17C240.284 17 240.074 16.928 239.93 16.784C239.798 16.64 239.732 16.412 239.732 16.1V5.138C239.732 4.814 239.792 4.586 239.912 4.454C240.032 4.31 240.236 4.238 240.524 4.238H243.53C244.274 4.238 244.988 4.31 245.672 4.454C246.368 4.598 246.998 4.946 247.562 5.498C248.126 6.038 248.408 6.86 248.408 7.964C248.408 8.732 248.228 9.428 247.868 10.052C247.508 10.664 246.962 11.15 246.23 11.51C245.51 11.87 244.616 12.05 243.548 12.05H241.676V15.83ZM241.676 11.096H243.53C244.43 11.096 245.126 10.844 245.618 10.34C246.122 9.824 246.374 9.032 246.374 7.964C246.374 7.076 246.152 6.392 245.708 5.912C245.276 5.432 244.55 5.192 243.53 5.192H241.676V11.096ZM256.215 15.92C256.215 16.328 256.125 16.61 255.945 16.766C255.777 16.922 255.495 17 255.099 17C254.823 17 254.613 16.928 254.469 16.784C254.337 16.64 254.271 16.412 254.271 16.1V5.192H251.571V6.47C251.571 6.89 251.481 7.19 251.301 7.37C251.133 7.55 250.875 7.64 250.527 7.64C250.263 7.64 250.065 7.568 249.933 7.424C249.813 7.28 249.753 7.052 249.753 6.74V4.904C249.753 4.652 249.837 4.478 250.005 4.382C250.185 4.286 250.461 4.238 250.833 4.238H259.653C260.025 4.238 260.295 4.286 260.463 4.382C260.643 4.478 260.733 4.652 260.733 4.904V6.74C260.733 7.052 260.667 7.28 260.535 7.424C260.415 7.568 260.223 7.64 259.959 7.64C259.611 7.64 259.347 7.55 259.167 7.37C258.999 7.19 258.915 6.89 258.915 6.47V5.192H256.215V15.92Z" fill="#881337"/>
<path d="M214.595 97.09C214.331 97.09 214.133 97.018 214.001 96.874C213.881 96.73 213.821 96.502 213.821 96.19V95.11C213.821 94.906 213.845 94.756 213.893 94.66C213.953 94.564 214.067 94.462 214.235 94.354C214.847 93.946 215.435 93.658 215.999 93.49C216.575 93.322 217.199 93.238 217.871 93.238C219.059 93.238 219.935 93.544 220.499 94.156C221.075 94.756 221.363 95.518 221.363 96.442C221.363 97.606 220.895 98.866 219.959 100.222C219.035 101.566 217.415 103.174 215.099 105.046H219.797V103.93C219.797 103.51 219.875 103.21 220.031 103.03C220.199 102.85 220.439 102.76 220.751 102.76C221.015 102.76 221.207 102.832 221.327 102.976C221.459 103.12 221.525 103.348 221.525 103.66V105.424C221.525 105.628 221.435 105.778 221.255 105.874C221.075 105.958 220.805 106 220.445 106H214.055C213.911 106 213.797 105.952 213.713 105.856C213.641 105.76 213.605 105.64 213.605 105.496C213.605 105.244 213.695 105.04 213.875 104.884L214.127 104.65C216.203 102.718 217.589 101.11 218.285 99.826C218.981 98.53 219.329 97.492 219.329 96.712C219.329 96.028 219.179 95.434 218.879 94.93C218.591 94.414 218.063 94.156 217.295 94.156C216.719 94.156 216.137 94.312 215.549 94.624V95.92C215.549 96.352 215.477 96.658 215.333 96.838C215.189 97.006 214.943 97.09 214.595 97.09ZM227.089 99.628C227.089 97.72 227.419 96.178 228.079 95.002C228.739 93.826 229.795 93.238 231.247 93.238C232.699 93.238 233.755 93.826 234.415 95.002C235.075 96.178 235.405 97.72 235.405 99.628C235.405 101.596 235.075 103.15 234.415 104.29C233.767 105.43 232.711 106 231.247 106C229.783 106 228.721 105.43 228.061 104.29C227.413 103.15 227.089 101.596 227.089 99.628ZM233.425 99.628C233.425 98.032 233.281 96.724 232.993 95.704C232.705 94.672 232.123 94.156 231.247 94.156C230.371 94.156 229.789 94.672 229.501 95.704C229.213 96.724 229.069 98.032 229.069 99.628C229.069 100.72 229.117 101.656 229.213 102.436C229.309 103.204 229.513 103.84 229.825 104.344C230.149 104.836 230.623 105.082 231.247 105.082C231.871 105.082 232.339 104.836 232.651 104.344C232.975 103.84 233.185 103.204 233.281 102.436C233.377 101.656 233.425 100.72 233.425 99.628ZM241.598 97.09C241.334 97.09 241.136 97.018 241.004 96.874C240.884 96.73 240.824 96.502 240.824 96.19V95.11C240.824 94.906 240.848 94.756 240.896 94.66C240.956 94.564 241.07 94.462 241.238 94.354C241.85 93.946 242.438 93.658 243.002 93.49C243.578 93.322 244.202 93.238 244.874 93.238C246.062 93.238 246.938 93.544 247.502 94.156C248.078 94.756 248.366 95.518 248.366 96.442C248.366 97.606 247.898 98.866 246.962 100.222C246.038 101.566 244.418 103.174 242.102 105.046H246.8V103.93C246.8 103.51 246.878 103.21 247.034 103.03C247.202 102.85 247.442 102.76 247.754 102.76C248.018 102.76 248.21 102.832 248.33 102.976C248.462 103.12 248.528 103.348 248.528 103.66V105.424C248.528 105.628 248.438 105.778 248.258 105.874C248.078 105.958 247.808 106 247.448 106H241.058C240.914 106 240.8 105.952 240.716 105.856C240.644 105.76 240.608 105.64 240.608 105.496C240.608 105.244 240.698 105.04 240.878 104.884L241.13 104.65C243.206 102.718 244.592 101.11 245.288 99.826C245.984 98.53 246.332 97.492 246.332 96.712C246.332 96.028 246.182 95.434 245.882 94.93C245.594 94.414 245.066 94.156 244.298 94.156C243.722 94.156 243.14 94.312 242.552 94.624V95.92C242.552 96.352 242.48 96.658 242.336 96.838C242.192 97.006 241.946 97.09 241.598 97.09ZM254.794 102.166C255.142 102.166 255.388 102.256 255.532 102.436C255.676 102.604 255.748 102.904 255.748 103.336V104.632C256.264 104.932 256.876 105.082 257.584 105.082C258.292 105.082 258.874 104.86 259.33 104.416C259.798 103.96 260.032 103.282 260.032 102.382C260.032 101.434 259.804 100.774 259.348 100.402C258.892 100.03 258.238 99.844 257.386 99.844H256.864C256.78 99.844 256.708 99.796 256.648 99.7C256.6 99.604 256.576 99.49 256.576 99.358C256.576 99.226 256.6 99.112 256.648 99.016C256.708 98.908 256.78 98.854 256.864 98.854H257.386C258.154 98.854 258.724 98.65 259.096 98.242C259.468 97.822 259.654 97.186 259.654 96.334C259.654 95.59 259.468 95.044 259.096 94.696C258.724 94.336 258.226 94.156 257.602 94.156C257.326 94.156 257.038 94.198 256.738 94.282C256.438 94.354 256.168 94.456 255.928 94.588V95.884C255.928 96.316 255.856 96.622 255.712 96.802C255.568 96.97 255.322 97.054 254.974 97.054C254.71 97.054 254.512 96.982 254.38 96.838C254.26 96.694 254.2 96.466 254.2 96.154V95.074C254.2 94.858 254.23 94.696 254.29 94.588C254.35 94.468 254.458 94.36 254.614 94.264C255.178 93.904 255.73 93.646 256.27 93.49C256.822 93.322 257.416 93.238 258.052 93.238C259.264 93.238 260.164 93.52 260.752 94.084C261.34 94.648 261.634 95.398 261.634 96.334C261.634 97.078 261.412 97.702 260.968 98.206C260.536 98.71 260.002 99.028 259.366 99.16V99.322C260.17 99.43 260.818 99.73 261.31 100.222C261.802 100.714 262.048 101.428 262.048 102.364C262.048 103.096 261.868 103.738 261.508 104.29C261.16 104.83 260.662 105.25 260.014 105.55C259.378 105.85 258.64 106 257.8 106C256.612 106 255.49 105.688 254.434 105.064C254.158 104.896 254.02 104.59 254.02 104.146V103.066C254.02 102.754 254.08 102.526 254.2 102.382C254.332 102.238 254.53 102.166 254.794 102.166Z" fill="#881337"/>
<path d="M223.75 48.06C223.51 48.16 223.27 48.21 223.03 48.21C222.79 48.21 222.6 48.12 222.46 47.94C222.32 47.76 222.25 47.56 222.25 47.34C222.25 47.04 222.46 46.82 222.88 46.68L227.11 45.03C227.65 44.83 228.19 44.73 228.73 44.73C229.27 44.73 229.66 44.85 229.9 45.09C230.14 45.33 230.26 45.71 230.26 46.23V64.41H232.84C233.3 64.41 233.61 64.49 233.77 64.65C233.95 64.81 234.04 65.02 234.04 65.28C234.04 65.5 233.98 65.68 233.86 65.82C233.74 65.94 233.5 66 233.14 66H224.2C223.84 66 223.6 65.94 223.48 65.82C223.36 65.68 223.3 65.5 223.3 65.28C223.3 65.02 223.38 64.81 223.54 64.65C223.72 64.49 224.04 64.41 224.5 64.41H227.08V46.8L223.75 48.06ZM235.321 45.84C235.321 45.42 235.461 45.13 235.741 44.97C236.041 44.81 236.501 44.73 237.121 44.73H247.531C247.911 44.73 248.191 44.83 248.371 45.03C248.551 45.23 248.641 45.48 248.641 45.78C248.641 46.2 248.531 46.59 248.311 46.95C246.531 49.77 245.191 52.53 244.291 55.23C243.411 57.93 242.721 60.85 242.221 63.99C242.201 64.13 242.161 64.42 242.101 64.86C242.041 65.28 241.871 65.58 241.591 65.76C241.331 65.92 240.921 66 240.361 66C239.721 66 239.271 65.93 239.011 65.79C238.751 65.63 238.621 65.4 238.621 65.1C238.621 64.72 238.751 64.03 239.011 63.03C239.891 59.75 240.951 56.66 242.191 53.76C243.431 50.84 244.771 48.36 246.211 46.32H238.201V48.03C238.201 48.75 238.081 49.26 237.841 49.56C237.601 49.84 237.191 49.98 236.611 49.98C236.171 49.98 235.841 49.86 235.621 49.62C235.421 49.38 235.321 49 235.321 48.48V45.84Z" fill="#881337"/>
<path d="M63.6774 49.656C63.9227 49.656 64.104 49.72 64.2214 49.848C64.3494 49.976 64.4134 50.1787 64.4134 50.456V60.2C64.4134 60.488 64.36 60.696 64.2534 60.824C64.1467 60.9413 63.9654 61 63.7094 61C63.3787 61 63.1227 60.8987 62.9414 60.696C62.7707 60.4827 62.6854 60.1733 62.6854 59.768V50.504H57.5174V59.96C57.5174 60.3333 57.4374 60.6 57.2774 60.76C57.1174 60.92 56.8667 61 56.5254 61C56.28 61 56.0934 60.936 55.9654 60.808C55.848 60.68 55.7894 60.4773 55.7894 60.2V50.456C55.7894 50.168 55.8427 49.9653 55.9494 49.848C56.056 49.72 56.2374 49.656 56.4934 49.656H63.6774ZM77.3455 60.2C77.3455 60.4773 77.2815 60.68 77.1535 60.808C77.0362 60.936 76.8548 61 76.6095 61C76.2682 61 76.0175 60.92 75.8575 60.76C75.6975 60.6 75.6175 60.3333 75.6175 59.96V55.976H74.1615L71.4735 60.392C71.3455 60.6053 71.1855 60.76 70.9935 60.856C70.8015 60.952 70.5988 61 70.3855 61C70.1188 61 69.9162 60.952 69.7775 60.856C69.6388 60.76 69.5695 60.632 69.5695 60.472C69.5695 60.3333 69.6175 60.1947 69.7135 60.056L72.3695 55.864C71.9002 55.8107 71.4522 55.6613 71.0255 55.416C70.5988 55.16 70.2468 54.824 69.9695 54.408C69.7028 53.9813 69.5695 53.5067 69.5695 52.984C69.5695 51.8213 69.9428 50.9787 70.6895 50.456C71.4468 49.9227 72.4228 49.656 73.6175 49.656H76.6415C76.8975 49.656 77.0788 49.72 77.1855 49.848C77.2922 49.9653 77.3455 50.168 77.3455 50.456V60.2ZM73.7775 50.504C73.1695 50.504 72.6148 50.68 72.1135 51.032C71.6228 51.384 71.3775 52.0027 71.3775 52.888C71.3775 53.7093 71.6175 54.2907 72.0975 54.632C72.5775 54.9627 73.1802 55.128 73.9055 55.128H75.6175V50.504H73.7775ZM87.6427 60.04C87.6427 60.4027 87.5627 60.6533 87.4027 60.792C87.2534 60.9307 87.0027 61 86.6507 61C86.4054 61 86.2187 60.936 86.0907 60.808C85.9734 60.68 85.9147 60.4773 85.9147 60.2V50.504H83.5147V51.64C83.5147 52.0133 83.4347 52.28 83.2747 52.44C83.1254 52.6 82.8961 52.68 82.5867 52.68C82.3521 52.68 82.1761 52.616 82.0587 52.488C81.9521 52.36 81.8987 52.1573 81.8987 51.88V50.248C81.8987 50.024 81.9734 49.8693 82.1227 49.784C82.2827 49.6987 82.5281 49.656 82.8587 49.656H90.6987C91.0294 49.656 91.2694 49.6987 91.4187 49.784C91.5787 49.8693 91.6587 50.024 91.6587 50.248V51.88C91.6587 52.1573 91.6001 52.36 91.4827 52.488C91.3761 52.616 91.2054 52.68 90.9707 52.68C90.6614 52.68 90.4267 52.6 90.2667 52.44C90.1174 52.28 90.0427 52.0133 90.0427 51.64V50.504H87.6427V60.04ZM104.161 49.656C104.406 49.656 104.588 49.72 104.705 49.848C104.833 49.976 104.897 50.1787 104.897 50.456V60.2C104.897 60.488 104.844 60.696 104.737 60.824C104.63 60.9413 104.449 61 104.193 61C103.862 61 103.606 60.8987 103.425 60.696C103.254 60.4827 103.169 60.1733 103.169 59.768V55.576H97.953V59.96C97.953 60.3333 97.873 60.6 97.713 60.76C97.553 60.92 97.3023 61 96.961 61C96.7157 61 96.529 60.936 96.401 60.808C96.2837 60.68 96.225 60.4773 96.225 60.2V50.456C96.225 50.168 96.2783 49.9653 96.385 49.848C96.4917 49.72 96.673 49.656 96.929 49.656C97.2597 49.656 97.5103 49.7627 97.681 49.976C97.8623 50.1787 97.953 50.4827 97.953 50.888V54.696H103.169V50.696C103.169 50.3227 103.249 50.056 103.409 49.896C103.569 49.736 103.82 49.656 104.161 49.656ZM118.644 49.656C118.889 49.656 119.071 49.72 119.188 49.848C119.316 49.976 119.38 50.1787 119.38 50.456V60.2C119.38 60.488 119.327 60.696 119.22 60.824C119.113 60.9413 118.932 61 118.676 61C118.345 61 118.089 60.8987 117.908 60.696C117.737 60.4827 117.652 60.1733 117.652 59.768V51.88L112.468 60.44C112.372 60.6107 112.255 60.7493 112.116 60.856C111.977 60.952 111.764 61 111.476 61C111.231 61 111.044 60.936 110.916 60.808C110.799 60.68 110.74 60.4773 110.74 60.2V50.456C110.74 50.168 110.793 49.9653 110.9 49.848C111.007 49.72 111.188 49.656 111.444 49.656C111.775 49.656 112.025 49.7627 112.196 49.976C112.377 50.1787 112.468 50.4827 112.468 50.888V58.776L117.652 50.216C117.769 50.024 117.892 49.8853 118.02 49.8C118.148 49.704 118.356 49.656 118.644 49.656ZM125.96 61C125.714 61 125.528 60.936 125.4 60.808C125.282 60.68 125.224 60.4773 125.224 60.2V50.456C125.224 50.168 125.277 49.9653 125.384 49.848C125.49 49.72 125.672 49.656 125.928 49.656C126.258 49.656 126.509 49.7627 126.68 49.976C126.861 50.1787 126.952 50.4827 126.952 50.888V60.152H131.784V50.696C131.784 50.3227 131.864 50.056 132.024 49.896C132.184 49.736 132.434 49.656 132.776 49.656C133.021 49.656 133.202 49.72 133.32 49.848C133.448 49.976 133.512 50.1787 133.512 50.456V60.152H133.992C134.322 60.152 134.562 60.1947 134.712 60.28C134.872 60.3653 134.952 60.52 134.952 60.744V62.872C134.952 63.1493 134.893 63.352 134.776 63.48C134.669 63.608 134.498 63.672 134.264 63.672C133.954 63.672 133.72 63.592 133.56 63.432C133.41 63.272 133.336 63.0053 133.336 62.632V61H125.96ZM140.094 60.152C139.966 60.4933 139.816 60.7227 139.646 60.84C139.486 60.9467 139.31 61 139.118 61C138.968 61 138.856 60.9627 138.782 60.888C138.718 60.8027 138.686 60.696 138.686 60.568C138.686 60.44 138.712 60.3067 138.766 60.168L142.526 50.04C142.568 49.9227 142.67 49.832 142.83 49.768C143 49.6933 143.192 49.656 143.406 49.656C143.64 49.656 143.848 49.6933 144.03 49.768C144.222 49.8427 144.339 49.9493 144.382 50.088L148.046 60.232C148.067 60.3387 148.078 60.4187 148.078 60.472C148.078 60.6213 148.024 60.7493 147.918 60.856C147.822 60.952 147.667 61 147.454 61C147.23 61 147 60.9413 146.766 60.824C146.542 60.7067 146.371 60.4827 146.254 60.152L145.406 57.96H140.91L140.094 60.152ZM143.23 51.544H143.134L141.166 57.128H145.166L143.23 51.544Z" fill="#881337"/>
<line y1="36" x2="200" y2="36" stroke="#881337" stroke-width="2"/>
<line y1="72" x2="200" y2="72" stroke="#881337" stroke-width="2"/>
<path d="M351.048 51.432C350.92 51.4853 350.792 51.512 350.664 51.512C350.536 51.512 350.435 51.464 350.36 51.368C350.285 51.272 350.248 51.1653 350.248 51.048C350.248 50.888 350.36 50.7707 350.584 50.696L352.84 49.816C353.128 49.7093 353.416 49.656 353.704 49.656C353.992 49.656 354.2 49.72 354.328 49.848C354.456 49.976 354.52 50.1787 354.52 50.456V60.152H355.896C356.141 60.152 356.307 60.1947 356.392 60.28C356.488 60.3653 356.536 60.4773 356.536 60.616C356.536 60.7333 356.504 60.8293 356.44 60.904C356.376 60.968 356.248 61 356.056 61H351.288C351.096 61 350.968 60.968 350.904 60.904C350.84 60.8293 350.808 60.7333 350.808 60.616C350.808 60.4773 350.851 60.3653 350.936 60.28C351.032 60.1947 351.203 60.152 351.448 60.152H352.824V50.76L351.048 51.432ZM359.859 50.248C359.859 50.024 359.934 49.8693 360.083 49.784C360.243 49.6987 360.489 49.656 360.819 49.656H366.371C366.574 49.656 366.723 49.7093 366.819 49.816C366.915 49.9227 366.963 50.056 366.963 50.216C366.963 50.44 366.905 50.648 366.787 50.84C365.838 52.344 365.123 53.816 364.643 55.256C364.174 56.696 363.806 58.2533 363.539 59.928C363.529 60.0027 363.507 60.1573 363.475 60.392C363.443 60.616 363.353 60.776 363.203 60.872C363.065 60.9573 362.846 61 362.547 61C362.206 61 361.966 60.9627 361.827 60.888C361.689 60.8027 361.619 60.68 361.619 60.52C361.619 60.3173 361.689 59.9493 361.827 59.416C362.297 57.6667 362.862 56.0187 363.523 54.472C364.185 52.9147 364.899 51.592 365.667 50.504H361.395V51.416C361.395 51.8 361.331 52.072 361.203 52.232C361.075 52.3813 360.857 52.456 360.547 52.456C360.313 52.456 360.137 52.392 360.019 52.264C359.913 52.136 359.859 51.9333 359.859 51.656V50.248ZM371.304 54.344C371.304 53.9707 371.421 53.6667 371.656 53.432C371.89 53.1973 372.178 53.08 372.52 53.08C372.861 53.08 373.149 53.2027 373.384 53.448C373.618 53.6827 373.736 53.9813 373.736 54.344C373.736 54.696 373.618 54.9893 373.384 55.224C373.149 55.4587 372.861 55.576 372.52 55.576C372.178 55.576 371.89 55.4587 371.656 55.224C371.421 54.9893 371.304 54.696 371.304 54.344ZM371.304 59.768C371.304 59.3947 371.421 59.0907 371.656 58.856C371.89 58.6213 372.178 58.504 372.52 58.504C372.861 58.504 373.149 58.6267 373.384 58.872C373.618 59.1067 373.736 59.4053 373.736 59.768C373.736 60.12 373.618 60.4133 373.384 60.648C373.149 60.8827 372.861 61 372.52 61C372.178 61 371.89 60.8827 371.656 60.648C371.421 60.4133 371.304 60.12 371.304 59.768ZM377.887 55.336C377.887 53.64 378.18 52.2693 378.767 51.224C379.354 50.1787 380.292 49.656 381.583 49.656C382.874 49.656 383.812 50.1787 384.399 51.224C384.986 52.2693 385.279 53.64 385.279 55.336C385.279 57.0853 384.986 58.4667 384.399 59.48C383.823 60.4933 382.884 61 381.583 61C380.282 61 379.338 60.4933 378.751 59.48C378.175 58.4667 377.887 57.0853 377.887 55.336ZM383.519 55.336C383.519 53.9173 383.391 52.7547 383.135 51.848C382.879 50.9307 382.362 50.472 381.583 50.472C380.804 50.472 380.287 50.9307 380.031 51.848C379.775 52.7547 379.647 53.9173 379.647 55.336C379.647 56.3067 379.69 57.1387 379.775 57.832C379.86 58.5147 380.042 59.08 380.319 59.528C380.607 59.9653 381.028 60.184 381.583 60.184C382.138 60.184 382.554 59.9653 382.831 59.528C383.119 59.08 383.306 58.5147 383.391 57.832C383.476 57.1387 383.519 56.3067 383.519 55.336ZM389.011 55.336C389.011 53.64 389.305 52.2693 389.891 51.224C390.478 50.1787 391.417 49.656 392.707 49.656C393.998 49.656 394.937 50.1787 395.523 51.224C396.11 52.2693 396.403 53.64 396.403 55.336C396.403 57.0853 396.11 58.4667 395.523 59.48C394.947 60.4933 394.009 61 392.707 61C391.406 61 390.462 60.4933 389.875 59.48C389.299 58.4667 389.011 57.0853 389.011 55.336ZM394.643 55.336C394.643 53.9173 394.515 52.7547 394.259 51.848C394.003 50.9307 393.486 50.472 392.707 50.472C391.929 50.472 391.411 50.9307 391.155 51.848C390.899 52.7547 390.771 53.9173 390.771 55.336C390.771 56.3067 390.814 57.1387 390.899 57.832C390.985 58.5147 391.166 59.08 391.443 59.528C391.731 59.9653 392.153 60.184 392.707 60.184C393.262 60.184 393.678 59.9653 393.955 59.528C394.243 59.08 394.43 58.5147 394.515 57.832C394.601 57.1387 394.643 56.3067 394.643 55.336Z" fill="#881337"/>
<line x1="272" y1="36" x2="472" y2="36" stroke="#881337" stroke-width="2"/>
<line x1="272" y1="72" x2="472" y2="72" stroke="#881337" stroke-width="2"/>
<path d="M71.8483 147.96C71.8483 148.333 71.7683 148.6 71.6083 148.76C71.4483 148.92 71.1976 149 70.8563 149C70.611 149 70.4243 148.936 70.2963 148.808C70.179 148.68 70.1203 148.477 70.1203 148.2V138.456C70.1203 138.179 70.179 137.976 70.2963 137.848C70.4243 137.72 70.611 137.656 70.8563 137.656H76.1363C76.467 137.656 76.707 137.699 76.8563 137.784C77.0163 137.869 77.0963 138.024 77.0963 138.248V139.96C77.0963 140.237 77.0376 140.44 76.9203 140.568C76.8136 140.696 76.643 140.76 76.4083 140.76C76.099 140.76 75.8643 140.68 75.7043 140.52C75.555 140.36 75.4803 140.093 75.4803 139.72V138.504H71.8483V147.96ZM89.5408 143.336C89.5408 144.136 89.4181 144.957 89.1728 145.8C88.9381 146.643 88.4581 147.389 87.7328 148.04C87.0075 148.68 85.9781 149 84.6448 149C83.3115 149 82.2821 148.68 81.5568 148.04C80.8421 147.389 80.3675 146.643 80.1328 145.8C79.8981 144.957 79.7808 144.136 79.7808 143.336C79.7808 142.536 79.8981 141.715 80.1328 140.872C80.3675 140.029 80.8421 139.283 81.5568 138.632C82.2821 137.981 83.3115 137.656 84.6448 137.656C85.9781 137.656 87.0075 137.981 87.7328 138.632C88.4581 139.283 88.9381 140.035 89.1728 140.888C89.4181 141.731 89.5408 142.547 89.5408 143.336ZM87.7328 143.336C87.7328 142.099 87.5248 140.979 87.1088 139.976C86.6928 138.973 85.8715 138.472 84.6448 138.472C83.4395 138.472 82.6288 138.973 82.2128 139.976C81.7968 140.979 81.5888 142.099 81.5888 143.336C81.5888 144.563 81.7968 145.677 82.2128 146.68C82.6288 147.683 83.4395 148.184 84.6448 148.184C85.8715 148.184 86.6928 147.688 87.1088 146.696C87.5248 145.693 87.7328 144.573 87.7328 143.336ZM95.3139 147.96C95.3139 148.333 95.2339 148.6 95.0739 148.76C94.9139 148.92 94.6633 149 94.3219 149C94.0766 149 93.8899 148.936 93.7619 148.808C93.6446 148.68 93.5859 148.477 93.5859 148.2V138.456C93.5859 138.168 93.6393 137.965 93.7459 137.848C93.8526 137.72 94.0339 137.656 94.2899 137.656H96.9619C97.6233 137.656 98.2579 137.72 98.8659 137.848C99.4846 137.976 100.045 138.285 100.546 138.776C101.047 139.256 101.298 139.987 101.298 140.968C101.298 141.651 101.138 142.269 100.818 142.824C100.498 143.368 100.013 143.8 99.3619 144.12C98.7219 144.44 97.9273 144.6 96.9779 144.6H95.3139V147.96ZM95.3139 143.752H96.9619C97.7619 143.752 98.3806 143.528 98.8179 143.08C99.2659 142.621 99.4899 141.917 99.4899 140.968C99.4899 140.179 99.2926 139.571 98.8979 139.144C98.5139 138.717 97.8686 138.504 96.9619 138.504H95.3139V143.752ZM114.069 143.336C114.069 144.136 113.946 144.957 113.701 145.8C113.466 146.643 112.986 147.389 112.261 148.04C111.536 148.68 110.506 149 109.173 149C107.84 149 106.81 148.68 106.085 148.04C105.37 147.389 104.896 146.643 104.661 145.8C104.426 144.957 104.309 144.136 104.309 143.336C104.309 142.536 104.426 141.715 104.661 140.872C104.896 140.029 105.37 139.283 106.085 138.632C106.81 137.981 107.84 137.656 109.173 137.656C110.506 137.656 111.536 137.981 112.261 138.632C112.986 139.283 113.466 140.035 113.701 140.888C113.946 141.731 114.069 142.547 114.069 143.336ZM112.261 143.336C112.261 142.099 112.053 140.979 111.637 139.976C111.221 138.973 110.4 138.472 109.173 138.472C107.968 138.472 107.157 138.973 106.741 139.976C106.325 140.979 106.117 142.099 106.117 143.336C106.117 144.563 106.325 145.677 106.741 146.68C107.157 147.683 107.968 148.184 109.173 148.184C110.4 148.184 111.221 147.688 111.637 146.696C112.053 145.693 112.261 144.573 112.261 143.336ZM117.818 150.632C117.818 151.005 117.738 151.272 117.578 151.432C117.428 151.592 117.199 151.672 116.89 151.672C116.655 151.672 116.479 151.608 116.362 151.48C116.255 151.352 116.202 151.149 116.202 150.872V148.744C116.202 148.52 116.271 148.371 116.41 148.296C116.559 148.211 116.794 148.163 117.114 148.152H117.274C117.914 147.523 118.346 146.595 118.57 145.368C118.794 144.131 118.906 142.397 118.906 140.168V138.456C118.906 138.168 118.959 137.965 119.066 137.848C119.172 137.72 119.354 137.656 119.61 137.656H124.922C125.167 137.656 125.348 137.72 125.466 137.848C125.594 137.976 125.658 138.179 125.658 138.456V148.152H126.138C126.468 148.152 126.708 148.195 126.858 148.28C127.018 148.365 127.098 148.52 127.098 148.744V150.872C127.098 151.149 127.039 151.352 126.922 151.48C126.815 151.608 126.644 151.672 126.41 151.672C126.1 151.672 125.866 151.592 125.706 151.432C125.556 151.272 125.482 151.005 125.482 150.632V149H117.818V150.632ZM120.17 140.12C120.17 142.04 120.074 143.64 119.882 144.92C119.69 146.189 119.316 147.267 118.762 148.152H123.93V138.504H120.17V140.12ZM143.687 140.44C143.378 140.44 143.143 140.36 142.983 140.2C142.834 140.04 142.759 139.773 142.759 139.4V138.504H138.839V142.344H141.159C142.428 142.344 143.404 142.6 144.087 143.112C144.77 143.624 145.111 144.461 145.111 145.624C145.111 146.467 144.892 147.144 144.455 147.656C144.018 148.157 143.495 148.509 142.887 148.712C142.279 148.904 141.692 149 141.127 149H137.847C137.602 149 137.415 148.936 137.287 148.808C137.17 148.68 137.111 148.477 137.111 148.2V138.456C137.111 138.179 137.17 137.976 137.287 137.848C137.415 137.72 137.602 137.656 137.847 137.656H143.415C143.746 137.656 143.986 137.699 144.135 137.784C144.295 137.869 144.375 138.024 144.375 138.248V139.64C144.375 139.917 144.316 140.12 144.199 140.248C144.092 140.376 143.922 140.44 143.687 140.44ZM138.839 148.152H140.919C141.548 148.152 142.103 147.949 142.583 147.544C143.063 147.139 143.303 146.499 143.303 145.624C143.303 144.003 142.482 143.192 140.839 143.192H138.839V148.152ZM156.959 137.656C157.204 137.656 157.385 137.72 157.503 137.848C157.631 137.976 157.695 138.179 157.695 138.456V148.2C157.695 148.488 157.641 148.696 157.535 148.824C157.428 148.941 157.247 149 156.991 149C156.66 149 156.404 148.899 156.223 148.696C156.052 148.483 155.967 148.173 155.967 147.768V139.88L150.783 148.44C150.687 148.611 150.569 148.749 150.431 148.856C150.292 148.952 150.079 149 149.791 149C149.545 149 149.359 148.936 149.231 148.808C149.113 148.68 149.055 148.477 149.055 148.2V138.456C149.055 138.168 149.108 137.965 149.215 137.848C149.321 137.72 149.503 137.656 149.759 137.656C150.089 137.656 150.34 137.763 150.511 137.976C150.692 138.179 150.783 138.483 150.783 138.888V146.776L155.967 138.216C156.084 138.024 156.207 137.885 156.335 137.8C156.463 137.704 156.671 137.656 156.959 137.656ZM163.234 149C162.989 149 162.802 148.936 162.674 148.808C162.557 148.68 162.498 148.477 162.498 148.2V138.456C162.498 138.168 162.552 137.965 162.658 137.848C162.765 137.72 162.946 137.656 163.202 137.656C163.533 137.656 163.784 137.763 163.954 137.976C164.136 138.179 164.226 138.483 164.226 138.888V148.152H168.082V138.616C168.082 138.253 168.157 138.003 168.306 137.864C168.466 137.725 168.722 137.656 169.074 137.656C169.32 137.656 169.501 137.72 169.618 137.848C169.746 137.976 169.81 138.179 169.81 138.456V148.152H173.666V138.696C173.666 138.323 173.746 138.056 173.906 137.896C174.066 137.736 174.317 137.656 174.658 137.656C174.904 137.656 175.085 137.72 175.202 137.848C175.33 137.976 175.394 138.179 175.394 138.456V148.2C175.394 148.477 175.33 148.68 175.202 148.808C175.085 148.936 174.904 149 174.658 149H163.234ZM182.256 142.776L186.96 137.976C187.163 137.763 187.376 137.656 187.6 137.656C187.76 137.656 187.894 137.709 188 137.816C188.118 137.923 188.176 138.04 188.176 138.168C188.176 138.243 188.15 138.307 188.096 138.36L183.536 142.872L188.144 147.944C188.294 148.115 188.368 148.269 188.368 148.408C188.368 148.568 188.304 148.707 188.176 148.824C188.059 148.941 187.904 149 187.712 149C187.467 149 187.232 148.947 187.008 148.84C186.795 148.733 186.55 148.525 186.272 148.216L182.256 143.656H181.92V147.96C181.92 148.333 181.84 148.6 181.68 148.76C181.52 148.92 181.27 149 180.928 149C180.683 149 180.496 148.936 180.368 148.808C180.251 148.68 180.192 148.477 180.192 148.2V138.456C180.192 138.168 180.246 137.965 180.352 137.848C180.459 137.72 180.64 137.656 180.896 137.656C181.227 137.656 181.478 137.763 181.648 137.976C181.83 138.179 181.92 138.483 181.92 138.888V142.776H182.256ZM197.943 140.44C197.634 140.44 197.399 140.36 197.239 140.2C197.09 140.04 197.015 139.773 197.015 139.4V138.504H193.223V142.696H196.583C196.722 142.696 196.829 142.744 196.903 142.84C196.989 142.925 197.031 143.027 197.031 143.144C197.031 143.251 196.983 143.352 196.887 143.448C196.791 143.533 196.69 143.576 196.583 143.576H193.223V148.152H197.255V147.256C197.255 146.883 197.33 146.616 197.479 146.456C197.639 146.296 197.874 146.216 198.183 146.216C198.418 146.216 198.589 146.28 198.695 146.408C198.813 146.536 198.871 146.739 198.871 147.016V148.408C198.871 148.632 198.791 148.787 198.631 148.872C198.482 148.957 198.242 149 197.911 149H192.231C191.986 149 191.799 148.936 191.671 148.808C191.554 148.68 191.495 148.477 191.495 148.2V138.456C191.495 138.179 191.554 137.976 191.671 137.848C191.799 137.72 191.986 137.656 192.231 137.656H197.671C198.002 137.656 198.242 137.699 198.391 137.784C198.551 137.869 198.631 138.024 198.631 138.248V139.64C198.631 139.917 198.573 140.12 198.455 140.248C198.349 140.376 198.178 140.44 197.943 140.44ZM204.769 142.776L209.473 137.976C209.675 137.763 209.889 137.656 210.113 137.656C210.273 137.656 210.406 137.709 210.513 137.816C210.63 137.923 210.689 138.04 210.689 138.168C210.689 138.243 210.662 138.307 210.609 138.36L206.049 142.872L210.657 147.944C210.806 148.115 210.881 148.269 210.881 148.408C210.881 148.568 210.817 148.707 210.689 148.824C210.571 148.941 210.417 149 210.225 149C209.979 149 209.745 148.947 209.521 148.84C209.307 148.733 209.062 148.525 208.785 148.216L204.769 143.656H204.433V147.96C204.433 148.333 204.353 148.6 204.193 148.76C204.033 148.92 203.782 149 203.441 149C203.195 149 203.009 148.936 202.881 148.808C202.763 148.68 202.705 148.477 202.705 148.2V138.456C202.705 138.168 202.758 137.965 202.865 137.848C202.971 137.72 203.153 137.656 203.409 137.656C203.739 137.656 203.99 137.763 204.161 137.976C204.342 138.179 204.433 138.483 204.433 138.888V142.776H204.769ZM233.058 138.504C233.271 137.939 233.58 137.656 233.986 137.656C234.135 137.656 234.252 137.709 234.338 137.816C234.434 137.912 234.482 138.035 234.482 138.184C234.482 138.312 234.455 138.429 234.402 138.536L231.426 145.528C231.02 146.477 230.508 147.293 229.89 147.976C229.282 148.659 228.588 149 227.81 149C227.564 149 227.367 148.931 227.218 148.792C227.079 148.643 227.01 148.419 227.01 148.12C227.01 147.907 227.084 147.757 227.234 147.672C227.383 147.587 227.666 147.517 228.082 147.464C228.562 147.421 228.951 147.272 229.25 147.016C229.548 146.76 229.799 146.381 230.002 145.88L226.05 138.616C225.986 138.499 225.954 138.365 225.954 138.216C225.954 138.056 226.007 137.923 226.114 137.816C226.22 137.709 226.359 137.656 226.53 137.656C226.807 137.656 227.036 137.715 227.218 137.832C227.41 137.949 227.591 138.168 227.762 138.488L230.77 144.12H230.866L233.058 138.504ZM245.829 137.656C246.075 137.656 246.256 137.72 246.373 137.848C246.501 137.976 246.565 138.179 246.565 138.456V148.2C246.565 148.488 246.512 148.696 246.405 148.824C246.299 148.941 246.117 149 245.861 149C245.531 149 245.275 148.899 245.093 148.696C244.923 148.483 244.837 148.173 244.837 147.768V138.504H241.077V140.12C241.077 141.528 241.029 142.723 240.933 143.704C240.837 144.675 240.672 145.523 240.437 146.248C240.309 146.643 240.107 147.053 239.829 147.48C239.563 147.907 239.237 148.269 238.853 148.568C238.48 148.856 238.08 149 237.653 149C237.461 149 237.296 148.915 237.157 148.744C237.029 148.563 236.965 148.36 236.965 148.136C236.965 147.944 237.019 147.805 237.125 147.72C237.232 147.624 237.467 147.517 237.829 147.4C238.533 147.155 239.04 146.584 239.349 145.688C239.563 145.08 239.691 144.381 239.733 143.592C239.787 142.792 239.813 141.651 239.813 140.168V138.456C239.813 138.168 239.867 137.965 239.973 137.848C240.08 137.72 240.261 137.656 240.517 137.656H245.829ZM250.721 147.768C250.721 147.395 250.838 147.091 251.073 146.856C251.308 146.621 251.596 146.504 251.937 146.504C252.278 146.504 252.566 146.627 252.801 146.872C253.036 147.107 253.153 147.405 253.153 147.768C253.153 148.12 253.036 148.413 252.801 148.648C252.566 148.883 252.278 149 251.937 149C251.596 149 251.308 148.883 251.073 148.648C250.838 148.413 250.721 148.12 250.721 147.768ZM262.757 138.248C262.757 138.024 262.832 137.869 262.981 137.784C263.141 137.699 263.387 137.656 263.717 137.656H269.269C269.472 137.656 269.621 137.709 269.717 137.816C269.813 137.923 269.861 138.056 269.861 138.216C269.861 138.44 269.803 138.648 269.685 138.84C268.736 140.344 268.021 141.816 267.541 143.256C267.072 144.696 266.704 146.253 266.437 147.928C266.427 148.003 266.405 148.157 266.373 148.392C266.341 148.616 266.251 148.776 266.101 148.872C265.963 148.957 265.744 149 265.445 149C265.104 149 264.864 148.963 264.725 148.888C264.587 148.803 264.517 148.68 264.517 148.52C264.517 148.317 264.587 147.949 264.725 147.416C265.195 145.667 265.76 144.019 266.421 142.472C267.083 140.915 267.797 139.592 268.565 138.504H264.293V139.416C264.293 139.8 264.229 140.072 264.101 140.232C263.973 140.381 263.755 140.456 263.445 140.456C263.211 140.456 263.035 140.392 262.917 140.264C262.811 140.136 262.757 139.933 262.757 139.656V138.248ZM280.678 148.152C280.55 148.493 280.401 148.723 280.23 148.84C280.07 148.947 279.894 149 279.702 149C279.553 149 279.441 148.963 279.366 148.888C279.302 148.803 279.27 148.696 279.27 148.568C279.27 148.44 279.297 148.307 279.35 148.168L283.11 138.04C283.153 137.923 283.254 137.832 283.414 137.768C283.585 137.693 283.777 137.656 283.99 137.656C284.225 137.656 284.433 137.693 284.614 137.768C284.806 137.843 284.924 137.949 284.966 138.088L288.63 148.232C288.652 148.339 288.662 148.419 288.662 148.472C288.662 148.621 288.609 148.749 288.502 148.856C288.406 148.952 288.252 149 288.038 149C287.814 149 287.585 148.941 287.35 148.824C287.126 148.707 286.956 148.483 286.838 148.152L285.99 145.96H281.494L280.678 148.152ZM283.814 139.544H283.718L281.75 145.128H285.75L283.814 139.544ZM300.483 137.656C300.729 137.656 300.91 137.72 301.027 137.848C301.155 137.976 301.219 138.179 301.219 138.456V148.2C301.219 148.488 301.166 148.696 301.059 148.824C300.953 148.941 300.771 149 300.515 149C300.185 149 299.929 148.899 299.747 148.696C299.577 148.483 299.491 148.173 299.491 147.768V138.504H294.323V147.96C294.323 148.333 294.243 148.6 294.083 148.76C293.923 148.92 293.673 149 293.331 149C293.086 149 292.899 148.936 292.771 148.808C292.654 148.68 292.595 148.477 292.595 148.2V138.456C292.595 138.168 292.649 137.965 292.755 137.848C292.862 137.72 293.043 137.656 293.299 137.656H300.483ZM307.751 147.96C307.751 148.333 307.671 148.6 307.511 148.76C307.351 148.92 307.101 149 306.759 149C306.514 149 306.327 148.936 306.199 148.808C306.082 148.68 306.023 148.477 306.023 148.2V138.456C306.023 138.168 306.077 137.965 306.183 137.848C306.29 137.72 306.471 137.656 306.727 137.656H309.399C310.061 137.656 310.695 137.72 311.303 137.848C311.922 137.976 312.482 138.285 312.983 138.776C313.485 139.256 313.735 139.987 313.735 140.968C313.735 141.651 313.575 142.269 313.255 142.824C312.935 143.368 312.45 143.8 311.799 144.12C311.159 144.44 310.365 144.6 309.415 144.6H307.751V147.96ZM307.751 143.752H309.399C310.199 143.752 310.818 143.528 311.255 143.08C311.703 142.621 311.927 141.917 311.927 140.968C311.927 140.179 311.73 139.571 311.335 139.144C310.951 138.717 310.306 138.504 309.399 138.504H307.751V143.752ZM323.946 140.44C323.637 140.44 323.402 140.36 323.242 140.2C323.093 140.04 323.018 139.773 323.018 139.4V138.504H319.226V142.696H322.586C322.725 142.696 322.832 142.744 322.906 142.84C322.992 142.925 323.034 143.027 323.034 143.144C323.034 143.251 322.986 143.352 322.89 143.448C322.794 143.533 322.693 143.576 322.586 143.576H319.226V148.152H323.258V147.256C323.258 146.883 323.333 146.616 323.482 146.456C323.642 146.296 323.877 146.216 324.186 146.216C324.421 146.216 324.592 146.28 324.698 146.408C324.816 146.536 324.874 146.739 324.874 147.016V148.408C324.874 148.632 324.794 148.787 324.634 148.872C324.485 148.957 324.245 149 323.914 149H318.234C317.989 149 317.802 148.936 317.674 148.808C317.557 148.68 317.498 148.477 317.498 148.2V138.456C317.498 138.179 317.557 137.976 317.674 137.848C317.802 137.72 317.989 137.656 318.234 137.656H323.674C324.005 137.656 324.245 137.699 324.394 137.784C324.554 137.869 324.634 138.024 324.634 138.248V139.64C324.634 139.917 324.576 140.12 324.458 140.248C324.352 140.376 324.181 140.44 323.946 140.44ZM336.292 137.656C336.537 137.656 336.718 137.72 336.836 137.848C336.964 137.976 337.028 138.179 337.028 138.456V148.2C337.028 148.488 336.974 148.696 336.868 148.824C336.761 148.941 336.58 149 336.324 149C335.993 149 335.737 148.899 335.556 148.696C335.385 148.483 335.3 148.173 335.3 147.768V138.504H331.54V140.12C331.54 141.528 331.492 142.723 331.396 143.704C331.3 144.675 331.134 145.523 330.9 146.248C330.772 146.643 330.569 147.053 330.292 147.48C330.025 147.907 329.7 148.269 329.316 148.568C328.942 148.856 328.542 149 328.116 149C327.924 149 327.758 148.915 327.62 148.744C327.492 148.563 327.428 148.36 327.428 148.136C327.428 147.944 327.481 147.805 327.588 147.72C327.694 147.624 327.929 147.517 328.292 147.4C328.996 147.155 329.502 146.584 329.812 145.688C330.025 145.08 330.153 144.381 330.196 143.592C330.249 142.792 330.276 141.651 330.276 140.168V138.456C330.276 138.168 330.329 137.965 330.436 137.848C330.542 137.72 330.724 137.656 330.98 137.656H336.292ZM348.911 148.2C348.911 148.477 348.847 148.68 348.719 148.808C348.602 148.936 348.421 149 348.175 149C347.834 149 347.583 148.92 347.423 148.76C347.263 148.6 347.183 148.333 347.183 147.96V143.976H345.727L343.039 148.392C342.911 148.605 342.751 148.76 342.559 148.856C342.367 148.952 342.165 149 341.951 149C341.685 149 341.482 148.952 341.343 148.856C341.205 148.76 341.135 148.632 341.135 148.472C341.135 148.333 341.183 148.195 341.279 148.056L343.935 143.864C343.466 143.811 343.018 143.661 342.591 143.416C342.165 143.16 341.813 142.824 341.535 142.408C341.269 141.981 341.135 141.507 341.135 140.984C341.135 139.821 341.509 138.979 342.255 138.456C343.013 137.923 343.989 137.656 345.183 137.656H348.207C348.463 137.656 348.645 137.72 348.751 137.848C348.858 137.965 348.911 138.168 348.911 138.456V148.2ZM345.343 138.504C344.735 138.504 344.181 138.68 343.679 139.032C343.189 139.384 342.943 140.003 342.943 140.888C342.943 141.709 343.183 142.291 343.663 142.632C344.143 142.963 344.746 143.128 345.471 143.128H347.183V138.504H345.343ZM360.502 139.432C360.374 139.485 360.246 139.512 360.118 139.512C359.99 139.512 359.888 139.464 359.814 139.368C359.739 139.272 359.702 139.165 359.702 139.048C359.702 138.888 359.814 138.771 360.038 138.696L362.294 137.816C362.582 137.709 362.87 137.656 363.158 137.656C363.446 137.656 363.654 137.72 363.782 137.848C363.91 137.976 363.974 138.179 363.974 138.456V148.152H365.35C365.595 148.152 365.76 148.195 365.846 148.28C365.942 148.365 365.99 148.477 365.99 148.616C365.99 148.733 365.958 148.829 365.894 148.904C365.83 148.968 365.702 149 365.51 149H360.742C360.55 149 360.422 148.968 360.358 148.904C360.294 148.829 360.262 148.733 360.262 148.616C360.262 148.477 360.304 148.365 360.39 148.28C360.486 148.195 360.656 148.152 360.902 148.152H362.278V138.76L360.502 139.432ZM368.273 138.248C368.273 138.024 368.347 137.869 368.497 137.784C368.657 137.699 368.902 137.656 369.233 137.656H374.785C374.987 137.656 375.137 137.709 375.233 137.816C375.329 137.923 375.377 138.056 375.377 138.216C375.377 138.44 375.318 138.648 375.201 138.84C374.251 140.344 373.537 141.816 373.057 143.256C372.587 144.696 372.219 146.253 371.953 147.928C371.942 148.003 371.921 148.157 371.889 148.392C371.857 148.616 371.766 148.776 371.617 148.872C371.478 148.957 371.259 149 370.961 149C370.619 149 370.379 148.963 370.241 148.888C370.102 148.803 370.033 148.68 370.033 148.52C370.033 148.317 370.102 147.949 370.241 147.416C370.71 145.667 371.275 144.019 371.937 142.472C372.598 140.915 373.313 139.592 374.081 138.504H369.809V139.416C369.809 139.8 369.745 140.072 369.617 140.232C369.489 140.381 369.27 140.456 368.961 140.456C368.726 140.456 368.55 140.392 368.433 140.264C368.326 140.136 368.273 139.933 368.273 139.656V138.248ZM381.584 146.232H376.928C376.629 146.232 376.48 146.104 376.48 145.848C376.48 145.741 376.517 145.613 376.592 145.464L381.344 138.248C381.6 137.853 381.973 137.656 382.464 137.656C382.752 137.656 382.96 137.72 383.088 137.848C383.216 137.976 383.28 138.179 383.28 138.456V145.384H384.272C384.517 145.384 384.683 145.427 384.768 145.512C384.864 145.597 384.912 145.709 384.912 145.848C384.912 145.965 384.88 146.061 384.816 146.136C384.752 146.2 384.624 146.232 384.432 146.232H383.28V148.152H384.192C384.437 148.152 384.603 148.195 384.688 148.28C384.784 148.365 384.832 148.477 384.832 148.616C384.832 148.733 384.8 148.829 384.736 148.904C384.672 148.968 384.544 149 384.352 149H380.192C380 149 379.872 148.968 379.808 148.904C379.744 148.829 379.712 148.733 379.712 148.616C379.712 148.477 379.755 148.365 379.84 148.28C379.936 148.195 380.107 148.152 380.352 148.152H381.584V146.232ZM381.584 139.752L377.824 145.384H381.584V139.752ZM388.309 152.2C388.266 152.264 388.197 152.296 388.101 152.296C387.941 152.296 387.77 152.237 387.589 152.12C387.407 152.003 387.317 151.891 387.317 151.784C387.317 151.752 387.322 151.725 387.333 151.704L395.589 137.08C395.621 137.016 395.69 136.984 395.797 136.984C395.957 136.984 396.127 137.048 396.309 137.176C396.501 137.304 396.597 137.432 396.597 137.56C396.597 137.603 396.591 137.635 396.581 137.656L388.309 152.2ZM400.995 139.432C400.867 139.485 400.739 139.512 400.611 139.512C400.483 139.512 400.382 139.464 400.307 139.368C400.233 139.272 400.195 139.165 400.195 139.048C400.195 138.888 400.307 138.771 400.531 138.696L402.787 137.816C403.075 137.709 403.363 137.656 403.651 137.656C403.939 137.656 404.147 137.72 404.275 137.848C404.403 137.976 404.467 138.179 404.467 138.456V148.152H405.843C406.089 148.152 406.254 148.195 406.339 148.28C406.435 148.365 406.483 148.477 406.483 148.616C406.483 148.733 406.451 148.829 406.387 148.904C406.323 148.968 406.195 149 406.003 149H401.235C401.043 149 400.915 148.968 400.851 148.904C400.787 148.829 400.755 148.733 400.755 148.616C400.755 148.477 400.798 148.365 400.883 148.28C400.979 148.195 401.15 148.152 401.395 148.152H402.771V138.76L400.995 139.432ZM194.767 171.96C194.767 172.333 194.687 172.6 194.527 172.76C194.367 172.92 194.116 173 193.775 173C193.53 173 193.343 172.936 193.215 172.808C193.098 172.68 193.039 172.477 193.039 172.2V162.456C193.039 162.168 193.092 161.965 193.199 161.848C193.306 161.72 193.487 161.656 193.743 161.656H196.415C197.076 161.656 197.711 161.72 198.319 161.848C198.938 161.976 199.498 162.285 199.999 162.776C200.5 163.256 200.751 163.987 200.751 164.968C200.751 165.651 200.591 166.269 200.271 166.824C199.951 167.368 199.466 167.8 198.815 168.12C198.175 168.44 197.38 168.6 196.431 168.6H194.767V171.96ZM194.767 167.752H196.415C197.215 167.752 197.834 167.528 198.271 167.08C198.719 166.621 198.943 165.917 198.943 164.968C198.943 164.179 198.746 163.571 198.351 163.144C197.967 162.717 197.322 162.504 196.415 162.504H194.767V167.752ZM210.962 164.44C210.653 164.44 210.418 164.36 210.258 164.2C210.109 164.04 210.034 163.773 210.034 163.4V162.504H206.242V166.696H209.602C209.741 166.696 209.847 166.744 209.922 166.84C210.007 166.925 210.05 167.027 210.05 167.144C210.05 167.251 210.002 167.352 209.906 167.448C209.81 167.533 209.709 167.576 209.602 167.576H206.242V172.152H210.274V171.256C210.274 170.883 210.349 170.616 210.498 170.456C210.658 170.296 210.893 170.216 211.202 170.216C211.437 170.216 211.607 170.28 211.714 170.408C211.831 170.536 211.89 170.739 211.89 171.016V172.408C211.89 172.632 211.81 172.787 211.65 172.872C211.501 172.957 211.261 173 210.93 173H205.25C205.005 173 204.818 172.936 204.69 172.808C204.573 172.68 204.514 172.477 204.514 172.2V162.456C204.514 162.179 204.573 161.976 204.69 161.848C204.818 161.72 205.005 161.656 205.25 161.656H210.69C211.021 161.656 211.261 161.699 211.41 161.784C211.57 161.869 211.65 162.024 211.65 162.248V163.64C211.65 163.917 211.591 164.12 211.474 164.248C211.367 164.376 211.197 164.44 210.962 164.44ZM222.171 164.536C221.862 164.536 221.627 164.456 221.467 164.296C221.318 164.136 221.243 163.869 221.243 163.496V162.6C220.849 162.515 220.459 162.472 220.075 162.472C219.062 162.472 218.257 162.899 217.659 163.752C217.073 164.595 216.779 165.832 216.779 167.464C216.779 169.203 217.067 170.424 217.643 171.128C218.219 171.821 219.067 172.168 220.187 172.168C220.849 172.168 221.547 172.013 222.283 171.704L222.587 171.576C222.651 171.555 222.694 171.544 222.715 171.544C222.822 171.544 222.913 171.597 222.987 171.704C223.062 171.8 223.099 171.907 223.099 172.024C223.099 172.173 223.03 172.28 222.891 172.344L222.619 172.456C222.182 172.637 221.739 172.776 221.291 172.872C220.854 172.957 220.337 173 219.739 173C218.118 173 216.918 172.52 216.139 171.56C215.361 170.589 214.971 169.213 214.971 167.432C214.971 166.141 215.179 165.064 215.595 164.2C216.022 163.336 216.603 162.696 217.339 162.28C218.075 161.864 218.918 161.656 219.867 161.656C220.721 161.656 221.499 161.768 222.203 161.992C222.459 162.077 222.63 162.173 222.715 162.28C222.811 162.376 222.859 162.541 222.859 162.776V163.736C222.859 164.013 222.801 164.216 222.683 164.344C222.577 164.472 222.406 164.536 222.171 164.536ZM231.084 172.04C231.084 172.403 231.004 172.653 230.844 172.792C230.695 172.931 230.444 173 230.092 173C229.847 173 229.66 172.936 229.532 172.808C229.415 172.68 229.356 172.477 229.356 172.2V162.504H226.956V163.64C226.956 164.013 226.876 164.28 226.716 164.44C226.567 164.6 226.338 164.68 226.028 164.68C225.794 164.68 225.618 164.616 225.5 164.488C225.394 164.36 225.34 164.157 225.34 163.88V162.248C225.34 162.024 225.415 161.869 225.564 161.784C225.724 161.699 225.97 161.656 226.3 161.656H234.14C234.471 161.656 234.711 161.699 234.86 161.784C235.02 161.869 235.1 162.024 235.1 162.248V163.88C235.1 164.157 235.042 164.36 234.924 164.488C234.818 164.616 234.647 164.68 234.412 164.68C234.103 164.68 233.868 164.6 233.708 164.44C233.559 164.28 233.484 164.013 233.484 163.64V162.504H231.084V172.04ZM247.322 167.336C247.322 168.136 247.199 168.957 246.954 169.8C246.719 170.643 246.239 171.389 245.514 172.04C244.789 172.68 243.759 173 242.426 173C241.093 173 240.063 172.68 239.338 172.04C238.623 171.389 238.149 170.643 237.914 169.8C237.679 168.957 237.562 168.136 237.562 167.336C237.562 166.536 237.679 165.715 237.914 164.872C238.149 164.029 238.623 163.283 239.338 162.632C240.063 161.981 241.093 161.656 242.426 161.656C243.759 161.656 244.789 161.981 245.514 162.632C246.239 163.283 246.719 164.035 246.954 164.888C247.199 165.731 247.322 166.547 247.322 167.336ZM245.514 167.336C245.514 166.099 245.306 164.979 244.89 163.976C244.474 162.973 243.653 162.472 242.426 162.472C241.221 162.472 240.41 162.973 239.994 163.976C239.578 164.979 239.37 166.099 239.37 167.336C239.37 168.563 239.578 169.677 239.994 170.68C240.41 171.683 241.221 172.184 242.426 172.184C243.653 172.184 244.474 171.688 244.89 170.696C245.306 169.693 245.514 168.573 245.514 167.336ZM253.095 171.96C253.095 172.333 253.015 172.6 252.855 172.76C252.695 172.92 252.445 173 252.103 173C251.858 173 251.671 172.936 251.543 172.808C251.426 172.68 251.367 172.477 251.367 172.2V162.456C251.367 162.168 251.421 161.965 251.527 161.848C251.634 161.72 251.815 161.656 252.071 161.656H254.743C255.405 161.656 256.039 161.72 256.647 161.848C257.266 161.976 257.826 162.285 258.327 162.776C258.829 163.256 259.079 163.987 259.079 164.968C259.079 165.651 258.919 166.269 258.599 166.824C258.279 167.368 257.794 167.8 257.143 168.12C256.503 168.44 255.709 168.6 254.759 168.6H253.095V171.96ZM253.095 167.752H254.743C255.543 167.752 256.162 167.528 256.599 167.08C257.047 166.621 257.271 165.917 257.271 164.968C257.271 164.179 257.074 163.571 256.679 163.144C256.295 162.717 255.65 162.504 254.743 162.504H253.095V167.752ZM262.369 172.152C262.241 172.493 262.092 172.723 261.921 172.84C261.761 172.947 261.585 173 261.393 173C261.244 173 261.132 172.963 261.057 172.888C260.993 172.803 260.961 172.696 260.961 172.568C260.961 172.44 260.988 172.307 261.041 172.168L264.801 162.04C264.844 161.923 264.945 161.832 265.105 161.768C265.276 161.693 265.468 161.656 265.681 161.656C265.916 161.656 266.124 161.693 266.305 161.768C266.497 161.843 266.614 161.949 266.657 162.088L270.321 172.232C270.342 172.339 270.353 172.419 270.353 172.472C270.353 172.621 270.3 172.749 270.193 172.856C270.097 172.952 269.942 173 269.729 173C269.505 173 269.276 172.941 269.041 172.824C268.817 172.707 268.646 172.483 268.529 172.152L267.681 169.96H263.185L262.369 172.152ZM265.505 163.544H265.409L263.441 169.128H267.441L265.505 163.544ZM282.222 161.656C282.467 161.656 282.649 161.72 282.766 161.848C282.894 161.976 282.958 162.179 282.958 162.456V172.2C282.958 172.488 282.905 172.696 282.798 172.824C282.691 172.941 282.51 173 282.254 173C281.923 173 281.667 172.899 281.486 172.696C281.315 172.483 281.23 172.173 281.23 171.768V167.576H276.014V171.96C276.014 172.333 275.934 172.6 275.774 172.76C275.614 172.92 275.363 173 275.022 173C274.777 173 274.59 172.936 274.462 172.808C274.345 172.68 274.286 172.477 274.286 172.2V162.456C274.286 162.168 274.339 161.965 274.446 161.848C274.553 161.72 274.734 161.656 274.99 161.656C275.321 161.656 275.571 161.763 275.742 161.976C275.923 162.179 276.014 162.483 276.014 162.888V166.696H281.23V162.696C281.23 162.323 281.31 162.056 281.47 161.896C281.63 161.736 281.881 161.656 282.222 161.656ZM200.012 185.592C200.012 185.432 200.097 185.315 200.268 185.24C200.438 185.155 200.668 185.112 200.956 185.112C201.233 185.112 201.462 185.155 201.644 185.24C201.825 185.325 201.916 185.443 201.916 185.592L201.388 188.76C201.377 188.835 201.329 188.893 201.244 188.936C201.158 188.968 201.062 188.984 200.956 188.984C200.849 188.984 200.753 188.963 200.668 188.92C200.582 188.877 200.534 188.824 200.524 188.76L200.012 185.592ZM202.812 185.592C202.812 185.432 202.897 185.315 203.068 185.24C203.249 185.155 203.478 185.112 203.756 185.112C204.033 185.112 204.262 185.155 204.444 185.24C204.625 185.325 204.716 185.443 204.716 185.592L204.188 188.76C204.177 188.835 204.129 188.893 204.044 188.936C203.958 188.968 203.862 188.984 203.756 188.984C203.649 188.984 203.553 188.963 203.468 188.92C203.382 188.877 203.334 188.824 203.324 188.76L202.812 185.592ZM207.763 196.152C207.635 196.493 207.485 196.723 207.315 196.84C207.155 196.947 206.979 197 206.787 197C206.637 197 206.525 196.963 206.451 196.888C206.387 196.803 206.355 196.696 206.355 196.568C206.355 196.44 206.381 196.307 206.435 196.168L210.195 186.04C210.237 185.923 210.339 185.832 210.499 185.768C210.669 185.693 210.861 185.656 211.075 185.656C211.309 185.656 211.517 185.693 211.699 185.768C211.891 185.843 212.008 185.949 212.051 186.088L215.715 196.232C215.736 196.339 215.747 196.419 215.747 196.472C215.747 196.621 215.693 196.749 215.587 196.856C215.491 196.952 215.336 197 215.123 197C214.899 197 214.669 196.941 214.435 196.824C214.211 196.707 214.04 196.483 213.923 196.152L213.075 193.96H208.579L207.763 196.152ZM210.899 187.544H210.803L208.835 193.128H212.835L210.899 187.544ZM225.971 188.536C225.662 188.536 225.427 188.456 225.267 188.296C225.118 188.136 225.043 187.869 225.043 187.496V186.6C224.649 186.515 224.259 186.472 223.875 186.472C222.862 186.472 222.057 186.899 221.459 187.752C220.873 188.595 220.579 189.832 220.579 191.464C220.579 193.203 220.867 194.424 221.443 195.128C222.019 195.821 222.867 196.168 223.987 196.168C224.649 196.168 225.347 196.013 226.083 195.704L226.387 195.576C226.451 195.555 226.494 195.544 226.515 195.544C226.622 195.544 226.713 195.597 226.787 195.704C226.862 195.8 226.899 195.907 226.899 196.024C226.899 196.173 226.83 196.28 226.691 196.344L226.419 196.456C225.982 196.637 225.539 196.776 225.091 196.872C224.654 196.957 224.137 197 223.539 197C221.918 197 220.718 196.52 219.939 195.56C219.161 194.589 218.771 193.213 218.771 191.432C218.771 190.141 218.979 189.064 219.395 188.2C219.822 187.336 220.403 186.696 221.139 186.28C221.875 185.864 222.718 185.656 223.667 185.656C224.521 185.656 225.299 185.768 226.003 185.992C226.259 186.077 226.43 186.173 226.515 186.28C226.611 186.376 226.659 186.541 226.659 186.776V187.736C226.659 188.013 226.601 188.216 226.483 188.344C226.377 188.472 226.206 188.536 225.971 188.536ZM240.596 197C239.956 197 239.636 196.589 239.636 195.768V188.024H239.524L236.228 196.408C236.068 196.803 235.844 197 235.556 197C235.258 197 235.028 196.803 234.868 196.408L231.796 188.024H231.684V196.104C231.684 196.413 231.615 196.643 231.476 196.792C231.348 196.931 231.199 197 231.028 197C230.858 197 230.714 196.941 230.596 196.824C230.479 196.707 230.42 196.525 230.42 196.28V186.504C230.42 186.237 230.522 186.029 230.724 185.88C230.927 185.731 231.167 185.656 231.444 185.656C231.679 185.656 231.908 185.72 232.132 185.848C232.367 185.965 232.538 186.157 232.644 186.424L235.716 194.92H235.796L239.14 186.504C239.247 186.205 239.418 185.992 239.652 185.864C239.898 185.725 240.159 185.656 240.436 185.656C240.714 185.656 240.916 185.725 241.044 185.864C241.183 186.003 241.252 186.216 241.252 186.504V196.2C241.252 196.499 241.204 196.707 241.108 196.824C241.012 196.941 240.842 197 240.596 197ZM246.532 196.152C246.404 196.493 246.254 196.723 246.084 196.84C245.924 196.947 245.748 197 245.556 197C245.406 197 245.294 196.963 245.22 196.888C245.156 196.803 245.124 196.696 245.124 196.568C245.124 196.44 245.15 196.307 245.204 196.168L248.964 186.04C249.006 185.923 249.108 185.832 249.268 185.768C249.438 185.693 249.63 185.656 249.844 185.656C250.078 185.656 250.286 185.693 250.468 185.768C250.66 185.843 250.777 185.949 250.82 186.088L254.484 196.232C254.505 196.339 254.516 196.419 254.516 196.472C254.516 196.621 254.462 196.749 254.356 196.856C254.26 196.952 254.105 197 253.892 197C253.668 197 253.438 196.941 253.204 196.824C252.98 196.707 252.809 196.483 252.692 196.152L251.844 193.96H247.348L246.532 196.152ZM249.668 187.544H249.572L247.604 193.128H251.604L249.668 187.544ZM266.384 185.656C266.63 185.656 266.811 185.72 266.928 185.848C267.056 185.976 267.12 186.179 267.12 186.456V196.2C267.12 196.488 267.067 196.696 266.96 196.824C266.854 196.941 266.672 197 266.416 197C266.086 197 265.83 196.899 265.648 196.696C265.478 196.483 265.392 196.173 265.392 195.768V191.576H260.176V195.96C260.176 196.333 260.096 196.6 259.936 196.76C259.776 196.92 259.526 197 259.184 197C258.939 197 258.752 196.936 258.624 196.808C258.507 196.68 258.448 196.477 258.448 196.2V186.456C258.448 186.168 258.502 185.965 258.608 185.848C258.715 185.72 258.896 185.656 259.152 185.656C259.483 185.656 259.734 185.763 259.904 185.976C260.086 186.179 260.176 186.483 260.176 186.888V190.696H265.392V186.696C265.392 186.323 265.472 186.056 265.632 185.896C265.792 185.736 266.043 185.656 266.384 185.656ZM271.283 185.592C271.283 185.432 271.369 185.315 271.539 185.24C271.71 185.155 271.939 185.112 272.227 185.112C272.505 185.112 272.734 185.155 272.915 185.24C273.097 185.325 273.187 185.443 273.187 185.592L272.659 188.76C272.649 188.835 272.601 188.893 272.515 188.936C272.43 188.968 272.334 188.984 272.227 188.984C272.121 188.984 272.025 188.963 271.939 188.92C271.854 188.877 271.806 188.824 271.795 188.76L271.283 185.592ZM274.083 185.592C274.083 185.432 274.169 185.315 274.339 185.24C274.521 185.155 274.75 185.112 275.027 185.112C275.305 185.112 275.534 185.155 275.715 185.24C275.897 185.325 275.987 185.443 275.987 185.592L275.459 188.76C275.449 188.835 275.401 188.893 275.315 188.936C275.23 188.968 275.134 188.984 275.027 188.984C274.921 188.984 274.825 188.963 274.739 188.92C274.654 188.877 274.606 188.824 274.595 188.76L274.083 185.592Z" fill="#881337"/>
</svg>
