<svg width="228" height="94" viewBox="0 0 228 94" fill="none" xmlns="http://www.w3.org/2000/svg">
<path d="M80.04 9.66C81.02 6.16 79.55 2.1 74.93 3.08C61.35 5.81 16.34 36.33 5.7 53.48C0.38 62.02 8.15 70 34.75 58.1C35.38 57.82 34.05 57.26 32.79 57.4C22.78 60.48 4.16 66.15 8.99 55.65C15.43 41.51 58.06 10.01 75 4.97C76.96 4.41 77.45 5.04 76.89 6.86C72.62 20.79 32.86 71.75 21.24 85.61C19.77 87.43 21.45 91.14 23.48 92.26C25.58 93.38 22.85 92.47 27.75 86.17C48.4 64.82 97.54 3.92 104.05 11.9C110.56 19.74 69.54 60.97 70.31 70.56C70.1 72.59 72.55 77 73.67 76.23C73.95 74.76 75.21 72.24 75.63 71.4C79.2 64.26 122.95 14.63 130.3 19.39C139.61 25.41 103.7 55.65 96.63 75.81C94.81 80.92 95.79 85.68 101.11 87.29C105.45 88.62 112.94 86.1 115.67 82.88C116.37 81.97 117.07 81.55 115.88 81.13C115.04 80.85 114.06 81.34 113.29 82.04C110.56 84.14 108.25 85.54 104.89 86.03C99.71 86.8 98.1 84.14 99.15 79.03C103.07 61.53 145.56 24.85 131.7 18.34C118.89 12.46 80.67 61.18 74.93 67.62C74.65 67.83 74.3 67.62 74.44 67.27C77.8 59.85 115.88 20.72 105.87 11.2C95.02 0.909998 48.26 60.41 48.26 60.41C48.12 60.62 47.84 60.41 47.91 60.2C55.96 46.97 74.44 22.75 80.04 9.66ZM120.579 68.7C124.119 70.44 136.839 57.48 136.539 57.12C136.119 56.4 123.399 68.58 121.599 67.32C120.279 66.42 121.959 61.62 126.939 56.1C127.479 55.5 124.119 54.66 123.159 55.8C121.479 57.3 115.539 66.18 120.579 68.7ZM125.559 52.74C125.379 53.4 128.139 52.86 128.139 52.86C128.139 52.86 131.859 52.14 130.719 51.72C129.579 51.3 127.239 51.78 127.239 51.78C127.239 51.78 125.679 52.32 125.559 52.74ZM178.082 28.14C179.822 23.34 177.482 20.82 174.302 20.64C156.182 19.08 121.982 69.84 132.602 75.6C133.262 75.96 134.522 75.96 135.122 75.84C141.602 74.88 158.042 61.62 162.422 57.18C162.782 56.88 162.242 56.34 161.882 56.64C159.002 59.16 138.782 75.54 133.922 73.86C130.802 72.84 136.922 60.72 138.422 57.78C142.562 56.52 173.522 41.88 178.082 28.14ZM173.282 21.72C176.222 21.3 177.902 22.2 177.062 26.04C174.842 38.34 143.582 54.24 139.442 55.8C147.422 41.58 163.562 23.04 173.282 21.72ZM156 67.98C158.34 70.38 163.8 65.82 166.8 61.86C165.24 65.52 166.38 67.08 168.18 67.98C171.66 69.72 184.38 56.82 184.14 56.4C183.72 55.68 171 67.86 169.14 66.66C167.82 65.7 169.56 60.9 174.48 55.44C175.02 54.84 171.72 53.94 170.7 55.08C169.5 56.16 168.96 56.82 168.96 56.82C168.84 55.26 164.94 54.66 163.02 55.62C156.66 58.74 153.42 65.88 156 67.98ZM168.06 57.06C168.42 57.78 167.76 58.92 167.34 59.34C165.78 61.02 163.38 63.78 161.46 65.46C159.66 67.02 157.74 67.86 157.32 67.44C155.34 65.58 165.6 53.52 168.06 57.06ZM177.314 67.26C177.974 67.68 178.694 68.22 179.474 67.62C180.134 67.14 180.734 66.6 181.274 66.06C182.354 64.98 192.194 55.56 193.274 55.86C193.634 56.28 190.694 59.94 189.554 63.3C189.134 64.56 188.954 65.52 190.394 66.6C191.414 67.5 193.034 67.14 194.054 66.48C197.174 64.5 203.834 58.8 205.814 56.64C205.994 56.34 206.414 55.38 205.034 56.52C202.094 58.62 193.334 66.96 192.014 65.52C190.814 64.26 195.674 58.5 195.794 56.82C196.094 55.8 194.294 53.16 192.314 54.3C188.534 56.34 183.374 62.1 180.134 64.62C180.314 63.78 181.574 61.62 185.474 55.14C184.634 54.78 184.334 55.14 184.034 55.44C181.274 58.5 178.874 61.86 176.954 65.46C176.594 66.18 176.654 66.78 177.314 67.26ZM199.535 67.98C201.875 70.38 207.335 65.82 210.335 61.86C208.775 65.52 209.915 67.08 211.715 67.98C215.195 69.72 227.915 56.82 227.675 56.4C227.255 55.68 214.535 67.86 212.675 66.66C211.355 65.7 213.095 60.9 218.015 55.44C218.555 54.84 215.255 53.94 214.235 55.08C213.035 56.16 212.495 56.82 212.495 56.82C212.375 55.26 208.475 54.66 206.555 55.62C200.195 58.74 196.955 65.88 199.535 67.98ZM211.595 57.06C211.955 57.78 211.295 58.92 210.875 59.34C209.315 61.02 206.915 63.78 204.995 65.46C203.195 67.02 201.275 67.86 200.855 67.44C198.875 65.58 209.135 53.52 211.595 57.06Z" fill="#881337"/>
</svg>
